<svg width="44" height="44" viewBox="0 0 44 44" fill="none" xmlns="http://www.w3.org/2000/svg">
<path d="M22 0C9.85096 0 0 9.8486 0 22C0 34.149 9.8486 44 22 44C34.149 44 44 34.1514 44 22C44 9.8486 34.149 0 22 0Z" fill="white"/>
<path d="M22.0009 3.15223C11.5925 3.15223 3.15283 11.5919 3.15283 22.0003C3.15283 32.4087 11.5925 40.8484 22.0009 40.8484C32.4093 40.8484 40.849 32.4087 40.849 22.0003C40.849 11.5919 32.4093 3.15223 22.0009 3.15223Z" fill="#505D68"/>
<mask id="mask0_136_870" style="mask-type:alpha" maskUnits="userSpaceOnUse" x="3" y="3" width="38" height="38">
<path d="M21.9979 3.15215C11.5894 3.15215 3.14978 11.5918 3.14978 22.0002C3.14978 32.4086 11.5894 40.8483 21.9979 40.8483C32.4063 40.8483 40.8459 32.4086 40.8459 22.0002C40.8459 11.5918 32.4063 3.15215 21.9979 3.15215Z" fill="#007AFF"/>
</mask>
<g mask="url(#mask0_136_870)">
<rect x="-56.1287" y="7.62939e-06" width="163.472" height="91.6161"/>
</g>
</svg>
