<svg width="195" height="150" viewBox="0 0 195 150" fill="none" xmlns="http://www.w3.org/2000/svg">
<g filter="url(#filter0_d_136_678)">
<path d="M167.695 9H27.3047C19.4044 9 13 13.7595 13 19.6306V123.369C13 129.241 19.4044 134 27.3047 134H167.695C175.596 134 182 129.241 182 123.369V19.6306C182 13.7595 175.596 9 167.695 9Z" fill="white"/>
</g>
<path d="M146.759 56.5062H170.123C171.013 56.5062 171.736 57.2276 171.736 58.1163V64.7281C171.736 65.6168 171.013 66.3382 170.123 66.3382H146.759C145.869 66.3382 145.146 65.6168 145.146 64.7281V58.1163C145.146 57.2276 145.869 56.5062 146.759 56.5062Z" fill="#007AFF"/>
<path d="M113.743 25.2679H81.5182C80.7108 25.2679 80.0535 24.6138 80.0535 23.8056C80.0535 22.9973 80.7086 22.3433 81.5182 22.3433H113.743C114.55 22.3433 115.207 22.9973 115.207 23.8056C115.207 24.6138 114.552 25.2679 113.743 25.2679Z" fill="#007AFF"/>
<path d="M44.7026 47.0523C45.0356 47.2001 45.2903 47.413 45.4687 47.6889C45.6472 47.9649 45.7364 48.293 45.7364 48.6711C45.7364 49.0491 45.6472 49.3729 45.4687 49.651C45.2903 49.9291 45.0356 50.1421 44.7026 50.2898C44.3696 50.4376 43.9779 50.5114 43.5295 50.5114H42.3586V52.0042H41.3966V46.8285H43.5295C43.9779 46.8285 44.3696 46.9024 44.7026 47.0501V47.0523ZM44.4393 49.4337C44.6569 49.2556 44.7657 49.0035 44.7657 48.6732C44.7657 48.343 44.6569 48.0887 44.4393 47.9128C44.2216 47.7368 43.9039 47.6455 43.4838 47.6455H42.3586V49.701H43.4838C43.9039 49.701 44.2216 49.6119 44.4393 49.4337Z" fill="black"/>
<path d="M46.6161 47.2481C46.5029 47.1416 46.4463 47.0113 46.4463 46.8527C46.4463 46.694 46.5029 46.5637 46.6161 46.4572C46.7292 46.3507 46.8707 46.2986 47.0383 46.2986C47.2059 46.2986 47.3473 46.3486 47.4605 46.4507C47.5737 46.5528 47.6303 46.6788 47.6303 46.8309C47.6303 46.9939 47.5759 47.1308 47.4627 47.2416C47.3495 47.3524 47.2102 47.4089 47.0361 47.4089C46.862 47.4089 46.7271 47.3567 46.6139 47.2503L46.6161 47.2481ZM46.5725 48.0586H47.4975V52.0066H46.5725V48.0586Z" fill="black"/>
<path d="M49.4238 51.8C49.0973 51.6284 48.8427 51.3872 48.662 51.0786C48.4792 50.7701 48.3878 50.4224 48.3878 50.0313C48.3878 49.6402 48.4792 49.2948 48.662 48.9884C48.8449 48.682 49.0973 48.443 49.4216 48.2714C49.7459 48.0997 50.1137 48.0128 50.5294 48.0128C50.919 48.0128 51.2607 48.091 51.5545 48.2496C51.8483 48.4082 52.0682 48.6342 52.2183 48.9297L51.5066 49.3447C51.3935 49.1622 51.252 49.0253 51.0801 48.9341C50.9081 48.8428 50.7231 48.7972 50.5207 48.7972C50.1747 48.7972 49.8896 48.9102 49.661 49.134C49.4347 49.3578 49.3193 49.6576 49.3193 50.0335C49.3193 50.4094 49.4325 50.7071 49.6567 50.9309C49.8808 51.1547 50.1681 51.2677 50.5185 51.2677C50.721 51.2677 50.9081 51.222 51.0779 51.1308C51.2477 51.0395 51.3891 50.9026 51.5045 50.7201L52.2162 51.1351C52.0638 51.4306 51.8396 51.6588 51.5458 51.8196C51.252 51.9804 50.9125 52.0607 50.5273 52.0607C50.1181 52.0607 49.7503 51.9738 49.4238 51.8022V51.8Z" fill="black"/>
<path d="M54.5917 50.3138L53.904 50.9634V52.0064H52.979V46.52H53.904V49.8314L55.8214 48.0562H56.9314L55.2795 49.7119L57.0859 52.0042H55.9607L54.5896 50.3116L54.5917 50.3138Z" fill="black"/>
<path d="M63.1772 48.4496C63.4775 48.7408 63.6298 49.171 63.6298 49.7424V52.0043H62.7049V49.8598C62.7049 49.5143 62.6243 49.2557 62.4611 49.0797C62.2979 48.9059 62.065 48.8168 61.7646 48.8168C61.4229 48.8168 61.1552 48.9189 60.9572 49.1232C60.7591 49.3274 60.6612 49.6229 60.6612 50.0075V52.0043H59.7362V48.0563H60.6177V48.567C60.77 48.3844 60.9637 48.2475 61.1944 48.1519C61.4273 48.0585 61.6885 48.0107 61.9801 48.0107C62.4785 48.0107 62.879 48.1563 63.1793 48.4474L63.1772 48.4496Z" fill="black"/>
<path d="M70.2452 47.0523C70.5782 47.2001 70.8329 47.413 71.0113 47.6889C71.1898 47.9649 71.279 48.293 71.279 48.6711C71.279 49.0491 71.1898 49.3729 71.0113 49.651C70.8329 49.9291 70.5782 50.1421 70.2452 50.2898C69.9122 50.4376 69.5205 50.5114 69.0721 50.5114H67.9012V52.0042H66.9392V46.8285H69.0721C69.5205 46.8285 69.9122 46.9024 70.2452 47.0501V47.0523ZM69.9819 49.4337C70.1995 49.2556 70.3083 49.0035 70.3083 48.6732C70.3083 48.343 70.1995 48.0887 69.9819 47.9128C69.7642 47.7368 69.4465 47.6455 69.0264 47.6455H67.9012V49.701H69.0264C69.4465 49.701 69.7642 49.6119 69.9819 49.4337Z" fill="black"/>
<path d="M74.9647 48.4321C75.2737 48.7103 75.4283 49.1318 75.4283 49.6924V52.0064H74.5533V51.5262C74.4402 51.6979 74.2791 51.8304 74.068 51.9217C73.8591 52.0129 73.6044 52.0586 73.3084 52.0586C73.0124 52.0586 72.7534 52.0086 72.5314 51.9065C72.3094 51.8065 72.1375 51.6653 72.0178 51.4849C71.8959 51.3046 71.8372 51.1025 71.8372 50.8744C71.8372 50.5202 71.9699 50.2356 72.2333 50.0205C72.4966 49.8054 72.9123 49.6989 73.4804 49.6989H74.5033V49.6402C74.5033 49.3643 74.4206 49.1513 74.2552 49.0036C74.0898 48.8558 73.8438 48.782 73.5174 48.782C73.2954 48.782 73.0777 48.8167 72.8623 48.8863C72.6468 48.9558 72.4661 49.0514 72.3181 49.1752L71.9547 48.5017C72.1614 48.3431 72.4117 48.2236 72.7034 48.1388C72.995 48.0541 73.3041 48.0128 73.6284 48.0128C74.2116 48.0128 74.6556 48.1518 74.9647 48.43V48.4321ZM74.1202 51.2264C74.3009 51.1199 74.4271 50.9678 74.5011 50.7723V50.3138H73.5457C73.0124 50.3138 72.7447 50.4898 72.7447 50.8396C72.7447 51.0069 72.8122 51.1395 72.945 51.2394C73.0777 51.3372 73.2627 51.3872 73.5 51.3872C73.7372 51.3872 73.9374 51.335 74.1181 51.2286L74.1202 51.2264Z" fill="black"/>
<path d="M80.2369 48.0585L78.3848 52.3238C78.2129 52.7518 78.0017 53.0538 77.7558 53.2298C77.5077 53.4058 77.2095 53.4927 76.8591 53.4927C76.6611 53.4927 76.4674 53.4602 76.2737 53.3971C76.08 53.3341 75.9233 53.245 75.7992 53.1299L76.1692 52.4498C76.2584 52.5345 76.3629 52.5997 76.4848 52.6497C76.6067 52.6997 76.7285 52.7236 76.8504 52.7236C77.0136 52.7236 77.1486 52.6823 77.2531 52.5975C77.3597 52.5128 77.4576 52.3737 77.5447 52.176L77.6122 52.0196L75.8863 48.0564H76.8482L78.0932 50.9766L79.3446 48.0564H80.2326L80.2369 48.0585Z" fill="black"/>
<path d="M82.6608 49.5665H84.6979V50.3357H82.6608V49.5665Z" fill="black"/>
<path d="M91.212 50.8089H88.6199L88.1084 52.0061H87.116L89.4491 46.8305H90.398L92.7377 52.0061H91.73L91.212 50.8089ZM90.8943 50.0549L89.917 47.793L88.9463 50.0549H90.8943Z" fill="black"/>
<path d="M95.6424 51.7914C95.5336 51.8805 95.4008 51.9457 95.2463 51.9913C95.0896 52.0348 94.9264 52.0587 94.7544 52.0587C94.3191 52.0587 93.984 51.9457 93.7467 51.7175C93.5095 51.4894 93.392 51.1613 93.392 50.7267V48.8255H92.7412V48.0867H93.392V47.185H94.3169V48.0867H95.3769V48.8255H94.3169V50.7028C94.3169 50.8962 94.3648 51.0418 94.4584 51.1417C94.552 51.2438 94.6869 51.2938 94.8654 51.2938C95.0722 51.2938 95.2463 51.2395 95.3834 51.1309L95.6424 51.7892V51.7914Z" fill="black"/>
<path d="M99.85 48.4497C100.15 48.7408 100.303 49.1711 100.303 49.7425V52.0044H99.3777V49.8598C99.3777 49.5144 99.2972 49.2558 99.134 49.0798C98.9707 48.906 98.7378 48.8169 98.4375 48.8169C98.0958 48.8169 97.8281 48.919 97.63 49.1233C97.432 49.3275 97.334 49.623 97.334 50.0076V52.0044H96.4091V46.518H97.334V48.5149C97.4864 48.3519 97.6757 48.2281 97.8999 48.1411C98.1241 48.0542 98.3744 48.0108 98.6508 48.0108C99.1492 48.0108 99.5497 48.1563 99.85 48.4475V48.4497Z" fill="black"/>
<path d="M101.478 46.52H102.403V52.0064H101.478V46.52Z" fill="black"/>
<path d="M104.317 51.8C103.995 51.6284 103.744 51.3872 103.566 51.0786C103.385 50.7701 103.296 50.4224 103.296 50.0313C103.296 49.6402 103.385 49.2948 103.566 48.9884C103.746 48.682 103.997 48.443 104.317 48.2714C104.637 48.0997 104.998 48.0128 105.398 48.0128C105.799 48.0128 106.167 48.0997 106.487 48.2714C106.806 48.4452 107.059 48.6842 107.237 48.9884C107.418 49.2948 107.507 49.6424 107.507 50.0313C107.507 50.4203 107.418 50.7701 107.237 51.0786C107.057 51.3872 106.806 51.6262 106.487 51.8C106.164 51.9717 105.803 52.0586 105.398 52.0586C104.994 52.0586 104.639 51.9717 104.317 51.8ZM106.243 50.9265C106.465 50.7006 106.576 50.4007 106.576 50.0313C106.576 49.662 106.465 49.3643 106.243 49.1361C106.021 48.9102 105.74 48.795 105.398 48.795C105.057 48.795 104.778 48.908 104.558 49.1361C104.338 49.3643 104.23 49.662 104.23 50.0313C104.23 50.4007 104.341 50.6984 104.558 50.9265C104.776 51.1547 105.059 51.2677 105.398 51.2677C105.738 51.2677 106.021 51.1547 106.243 50.9265Z" fill="black"/>
<path d="M111.84 48.4496C112.141 48.7408 112.293 49.171 112.293 49.7424V52.0043H111.368V49.8598C111.368 49.5143 111.288 49.2557 111.124 49.0797C110.961 48.9059 110.728 48.8168 110.428 48.8168C110.086 48.8168 109.818 48.9189 109.62 49.1232C109.422 49.3274 109.324 49.6229 109.324 50.0075V52.0043H108.399V48.0563H109.281V48.567C109.433 48.3844 109.627 48.2475 109.858 48.1519C110.091 48.0585 110.352 48.0107 110.643 48.0107C111.142 48.0107 111.542 48.1563 111.843 48.4474L111.84 48.4496Z" fill="black"/>
<path d="M117.209 50.329H114.105C114.16 50.6202 114.301 50.8505 114.532 51.02C114.761 51.1894 115.046 51.2742 115.387 51.2742C115.823 51.2742 116.18 51.1308 116.46 50.8461L116.957 51.4154C116.778 51.6284 116.554 51.787 116.282 51.8956C116.01 52.0043 115.705 52.0586 115.363 52.0586C114.928 52.0586 114.545 51.9717 114.216 51.8C113.888 51.6284 113.631 51.3872 113.45 51.0786C113.27 50.7701 113.18 50.4224 113.18 50.0313C113.18 49.6402 113.267 49.3013 113.444 48.9927C113.62 48.6842 113.862 48.4452 114.173 48.2714C114.484 48.0997 114.835 48.0128 115.224 48.0128C115.614 48.0128 115.953 48.0975 116.258 48.267C116.563 48.4365 116.798 48.6755 116.97 48.984C117.139 49.2926 117.224 49.6489 117.224 50.0531C117.224 50.1161 117.22 50.2073 117.209 50.3268V50.329ZM114.473 49.0166C114.269 49.1926 114.145 49.4251 114.099 49.7163H116.343C116.304 49.4295 116.182 49.1991 115.979 49.021C115.777 48.8428 115.524 48.7537 115.224 48.7537C114.924 48.7537 114.678 48.8406 114.473 49.0166Z" fill="black"/>
<path d="M43.9068 62.7178H41.874L41.4735 63.6586H40.6943L42.5247 59.5976H43.2691L45.106 63.6586H44.3159L43.9089 62.7178H43.9068ZM43.6565 62.1268L42.8904 60.3516L42.1286 62.1268H43.6565Z" fill="#007AFF"/>
<path d="M46.3297 63.4484C45.9989 63.2681 45.7399 63.0204 45.5505 62.7031C45.3634 62.3859 45.2698 62.0274 45.2698 61.6298C45.2698 61.2321 45.3634 60.8736 45.5549 60.5564C45.7442 60.2391 46.0054 59.9914 46.3362 59.8111C46.667 59.6308 47.0392 59.5417 47.4484 59.5417C47.7814 59.5417 48.0861 59.6003 48.3603 59.7155C48.6345 59.8307 48.8674 60.0001 49.0568 60.2196L48.5693 60.6781C48.2754 60.3608 47.912 60.2022 47.4832 60.2022C47.2046 60.2022 46.9543 60.263 46.7345 60.3847C46.5147 60.5064 46.3406 60.6759 46.2187 60.8932C46.0968 61.1104 46.0315 61.356 46.0315 61.6298C46.0315 61.9035 46.0946 62.1491 46.2187 62.3663C46.3428 62.5836 46.5147 62.7531 46.7345 62.8748C46.9543 62.9964 47.2046 63.0573 47.4832 63.0573C47.9141 63.0573 48.2754 62.8965 48.5693 62.5749L49.0568 63.0399C48.8674 63.2594 48.6324 63.4288 48.356 63.544C48.0796 63.6592 47.7749 63.7178 47.4419 63.7178C47.0305 63.7178 46.6605 63.6287 46.3297 63.4484Z" fill="#007AFF"/>
<path d="M50.5632 60.2364H49.2159V59.5976H52.6678V60.2364H51.3206V63.6586H50.5653V60.2364H50.5632Z" fill="#007AFF"/>
<path d="M53.238 59.5976H53.9933V63.6586H53.238V59.5976Z" fill="#007AFF"/>
<path d="M58.7842 59.5976L57.0126 63.6586H56.2683L54.4901 59.5976H55.3106L56.6644 62.7308L58.029 59.5976H58.7842Z" fill="#007AFF"/>
<path d="M62.2592 63.0263V63.6586H59.2079V59.5976H62.1765V60.2299H59.9631V61.2859H61.9263V61.9073H59.9631V63.0263H62.2592Z" fill="#007AFF"/>
<path d="M65.825 59.5976V63.6586H65.0698V60.2299H64.2101V59.5976H65.825Z" fill="#007AFF"/>
<path d="M69.5762 63.0204V63.6592H66.5771V63.1551L68.192 61.6232C68.3748 61.4494 68.4967 61.2973 68.562 61.1669C68.6251 61.0366 68.6578 60.9084 68.6578 60.7802C68.6578 60.5911 68.5947 60.4456 68.4663 60.3456C68.3378 60.2457 68.1507 60.1957 67.9026 60.1957C67.4869 60.1957 67.1691 60.3369 66.9493 60.6194L66.4204 60.2131C66.5793 60.0001 66.7926 59.835 67.0625 59.7177C67.3323 59.6003 67.6327 59.5417 67.9657 59.5417C68.4075 59.5417 68.7601 59.646 69.0234 59.8546C69.2868 60.0631 69.4174 60.3478 69.4174 60.7063C69.4174 60.9258 69.3717 61.1343 69.2781 61.3277C69.1845 61.5211 69.006 61.7406 68.7427 61.9883L67.6566 63.0204H69.5741H69.5762Z" fill="#007AFF"/>
<path d="M70.1327 61.3535C70.0391 61.2622 69.9934 61.1471 69.9934 61.008C69.9934 60.869 70.0391 60.7495 70.1305 60.6604C70.2219 60.5713 70.3351 60.5278 70.47 60.5278C70.605 60.5278 70.7182 60.5713 70.8096 60.6604C70.901 60.7495 70.9467 60.8646 70.9467 61.008C70.9467 61.1514 70.901 61.2622 70.8074 61.3535C70.7138 61.4448 70.6028 61.4904 70.47 61.4904C70.3373 61.4904 70.2263 61.4448 70.1327 61.3535ZM70.1327 63.5633C70.0391 63.472 69.9934 63.3568 69.9934 63.2178C69.9934 63.0787 70.0391 62.9592 70.1305 62.8701C70.2219 62.781 70.3351 62.7376 70.47 62.7376C70.605 62.7376 70.7182 62.781 70.8096 62.8701C70.901 62.9592 70.9467 63.0744 70.9467 63.2178C70.9467 63.3612 70.901 63.472 70.8074 63.5633C70.7138 63.6545 70.6028 63.7001 70.47 63.7001C70.3373 63.7001 70.2263 63.6545 70.1327 63.5633Z" fill="#007AFF"/>
<path d="M72.2538 63.4699C71.9992 63.3048 71.7968 63.0658 71.6488 62.7507C71.5008 62.4357 71.429 62.0619 71.429 61.6274C71.429 61.1928 71.503 60.8191 71.6488 60.504C71.7968 60.189 71.997 59.95 72.2538 59.7848C72.5085 59.6197 72.8001 59.5393 73.1244 59.5393C73.4487 59.5393 73.7425 59.6219 73.9993 59.7848C74.2561 59.95 74.4586 60.189 74.6066 60.504C74.7545 60.8191 74.8264 61.1928 74.8264 61.6274C74.8264 62.0619 74.7524 62.4357 74.6066 62.7507C74.4586 63.0658 74.2561 63.3048 73.9993 63.4699C73.7425 63.6351 73.4509 63.7155 73.1244 63.7155C72.7979 63.7155 72.5085 63.6329 72.2538 63.4699ZM73.8143 62.7008C73.9819 62.4617 74.0668 62.1032 74.0668 61.6274C74.0668 61.1515 73.9819 60.793 73.8143 60.554C73.6446 60.315 73.416 60.1955 73.1244 60.1955C72.8328 60.1955 72.6108 60.315 72.441 60.554C72.2734 60.793 72.1885 61.1515 72.1885 61.6274C72.1885 62.1032 72.2734 62.4617 72.441 62.7008C72.6108 62.9398 72.8371 63.0593 73.1244 63.0593C73.4117 63.0593 73.6446 62.9398 73.8143 62.7008Z" fill="#007AFF"/>
<path d="M76.1684 63.4699C75.9137 63.3048 75.7113 63.0658 75.5633 62.7507C75.4153 62.4357 75.3435 62.0619 75.3435 61.6274C75.3435 61.1928 75.4175 60.8191 75.5633 60.504C75.7113 60.189 75.9116 59.95 76.1684 59.7848C76.4252 59.6197 76.7147 59.5393 77.0411 59.5393C77.3676 59.5393 77.6571 59.6219 77.9161 59.7848C78.1729 59.95 78.3753 60.189 78.5233 60.504C78.6713 60.8191 78.7431 61.1928 78.7431 61.6274C78.7431 62.0619 78.6691 62.4357 78.5233 62.7507C78.3775 63.0658 78.1729 63.3048 77.9161 63.4699C77.6571 63.6351 77.3676 63.7155 77.0411 63.7155C76.7147 63.7155 76.4252 63.6329 76.1684 63.4699ZM77.7289 62.7008C77.8986 62.4617 77.9813 62.1032 77.9813 61.6274C77.9813 61.1515 77.8965 60.793 77.7289 60.554C77.5613 60.315 77.3306 60.1955 77.0411 60.1955C76.7517 60.1955 76.5275 60.315 76.3577 60.554C76.188 60.793 76.1053 61.1515 76.1053 61.6274C76.1053 62.1032 76.1901 62.4617 76.3577 62.7008C76.5253 62.9398 76.7538 63.0593 77.0411 63.0593C77.3284 63.0593 77.5613 62.9398 77.7289 62.7008Z" fill="#007AFF"/>
<path d="M82.0075 60.7234C82.2447 60.8538 82.4319 61.0406 82.569 61.2796C82.704 61.5186 82.7714 61.7968 82.7714 62.1096C82.7714 62.4225 82.704 62.7006 82.569 62.9418C82.4341 63.183 82.2469 63.3699 82.0075 63.5024C81.7703 63.635 81.4982 63.7001 81.1979 63.7001C80.78 63.7001 80.4492 63.5611 80.2032 63.283V64.7866H79.4763V60.5626H80.1684V60.9689C80.2881 60.8212 80.4361 60.7125 80.6124 60.6386C80.7887 60.5648 80.9846 60.5278 81.1979 60.5278C81.5004 60.5278 81.7703 60.593 82.0075 60.7256V60.7234ZM81.7746 62.8115C81.9466 62.6333 82.0336 62.3986 82.0336 62.1096C82.0336 61.8207 81.9466 61.586 81.7746 61.4078C81.6027 61.2296 81.3829 61.1406 81.1152 61.1406C80.9411 61.1406 80.7844 61.1797 80.6451 61.2601C80.5058 61.3405 80.3948 61.4535 80.3142 61.599C80.2337 61.7468 80.1924 61.9163 80.1924 62.1096C80.1924 62.303 80.2337 62.4725 80.3142 62.6203C80.3948 62.768 80.5058 62.881 80.6451 62.9592C80.7844 63.0374 80.9411 63.0787 81.1152 63.0787C81.3829 63.0787 81.6027 62.9896 81.7746 62.8115Z" fill="#007AFF"/>
<path d="M88.3074 60.8648C88.5359 61.0908 88.6512 61.4297 88.6512 61.8839V63.6591H87.9243V61.9773C87.9243 61.7057 87.8634 61.5036 87.7437 61.3646C87.624 61.2277 87.452 61.1581 87.2279 61.1581C86.9841 61.1581 86.7882 61.2385 86.6402 61.3993C86.4922 61.5601 86.4204 61.7883 86.4204 62.0859V63.6591H85.6935V61.9773C85.6935 61.7057 85.6347 61.5036 85.5128 61.3646C85.3931 61.2277 85.2212 61.1581 84.9948 61.1581C84.7467 61.1581 84.5508 61.2364 84.405 61.395C84.2592 61.5536 84.1874 61.7839 84.1874 62.0859V63.6591H83.4604V60.5606H84.1526V60.9561C84.2679 60.817 84.4137 60.7105 84.5878 60.6367C84.762 60.5628 84.9557 60.5258 85.169 60.5258C85.4018 60.5258 85.6064 60.5693 85.7871 60.6562C85.9677 60.7431 86.1092 60.8713 86.2136 61.043C86.342 60.88 86.5053 60.754 86.7077 60.6627C86.9101 60.5715 87.1321 60.5258 87.3759 60.5258C87.7676 60.5258 88.0767 60.6388 88.3052 60.8648H88.3074Z" fill="#007AFF"/>
<path d="M153.625 63.0203V63.6591H150.626V63.1551L152.24 61.6232C152.423 61.4494 152.545 61.2973 152.61 61.1669C152.676 61.0366 152.706 60.9084 152.706 60.7802C152.706 60.5911 152.643 60.4456 152.515 60.3456C152.386 60.2457 152.199 60.1957 151.951 60.1957C151.535 60.1957 151.22 60.3369 150.998 60.6194L150.469 60.2131C150.628 60.0001 150.841 59.835 151.111 59.7177C151.381 59.6003 151.681 59.5417 152.014 59.5417C152.456 59.5417 152.809 59.646 153.072 59.8545C153.335 60.0631 153.468 60.3478 153.468 60.7063C153.468 60.9257 153.422 61.1343 153.329 61.3277C153.235 61.5211 153.057 61.7405 152.793 61.9883L151.707 63.0203H153.625Z" fill="white"/>
<path d="M157.005 63.0203V63.6591H154.006V63.1551L155.621 61.6232C155.803 61.4494 155.925 61.2973 155.991 61.1669C156.056 61.0366 156.086 60.9084 156.086 60.7802C156.086 60.5911 156.023 60.4456 155.895 60.3456C155.766 60.2457 155.579 60.1957 155.331 60.1957C154.915 60.1957 154.6 60.3369 154.378 60.6194L153.849 60.2131C154.008 60.0001 154.221 59.835 154.491 59.7177C154.761 59.6003 155.061 59.5417 155.394 59.5417C155.836 59.5417 156.189 59.646 156.452 59.8545C156.715 60.0631 156.848 60.3478 156.848 60.7063C156.848 60.9257 156.802 61.1343 156.709 61.3277C156.615 61.5211 156.437 61.7405 156.173 61.9883L155.087 63.0203H157.005Z" fill="white"/>
<path d="M159.131 61.9598L158.487 62.6204V63.659H157.732V59.598H158.487V61.6795L160.498 59.598H161.347L159.638 61.4144L161.451 63.659H160.568L159.131 61.9598Z" fill="white"/>
<path d="M165.706 63.659L165.7 60.9668L164.363 63.194H164.026L162.69 61.0016V63.659H161.969V59.598H162.592L164.206 62.2901L165.793 59.598H166.416L166.422 63.659H165.708H165.706Z" fill="white"/>
<path d="M41.1253 73.1109C40.9381 73.0457 40.7945 72.9609 40.6943 72.8545L40.8075 72.6328C40.9055 72.7306 41.0382 72.811 41.2014 72.8719C41.3647 72.9327 41.5344 72.9631 41.7086 72.9631C41.9523 72.9631 42.1373 72.9175 42.2592 72.8284C42.3811 72.7393 42.442 72.622 42.442 72.4786C42.442 72.3699 42.4094 72.283 42.3419 72.2178C42.2744 72.1526 42.1939 72.1027 42.0981 72.0679C42.0024 72.0331 41.8674 71.994 41.6955 71.9527C41.4909 71.9006 41.3255 71.8506 41.2036 71.8028C41.0817 71.755 40.9773 71.6812 40.8902 71.5834C40.8032 71.4834 40.7596 71.3509 40.7596 71.1814C40.7596 71.0445 40.7966 70.9185 40.8685 70.8055C40.9403 70.6925 41.0534 70.6013 41.2036 70.5339C41.3538 70.4665 41.5431 70.4318 41.7651 70.4318C41.9218 70.4318 42.0742 70.4535 42.2244 70.497C42.3745 70.5404 42.503 70.5991 42.614 70.6751L42.516 70.9055C42.4007 70.8294 42.2788 70.7729 42.1482 70.736C42.0176 70.699 41.8914 70.6795 41.7651 70.6795C41.5257 70.6795 41.3451 70.7251 41.2232 70.8185C41.1013 70.912 41.0426 71.0293 41.0426 71.1749C41.0426 71.2835 41.0752 71.3726 41.1427 71.4378C41.208 71.5052 41.2929 71.5551 41.393 71.5899C41.4931 71.6247 41.628 71.6638 41.7978 71.7051C41.998 71.755 42.1613 71.8028 42.2831 71.8506C42.4072 71.8984 42.5117 71.9723 42.5965 72.0679C42.6814 72.1657 42.725 72.2982 42.725 72.4634C42.725 72.6003 42.688 72.7263 42.614 72.8393C42.54 72.9522 42.4246 73.0413 42.2723 73.1087C42.1177 73.176 41.9305 73.2086 41.7064 73.2086C41.504 73.2086 41.3081 73.176 41.1231 73.1109H41.1253Z" fill="black"/>
<path d="M45.1463 71.1335V73.1846H44.8807V72.8109C44.8067 72.9347 44.7066 73.0325 44.5804 73.102C44.452 73.1716 44.3062 73.2063 44.1429 73.2063C43.8752 73.2063 43.6641 73.1324 43.5074 72.9825C43.3529 72.8326 43.2745 72.6131 43.2745 72.3263V71.1378H43.5509V72.3003C43.5509 72.5154 43.6032 72.6805 43.712 72.7913C43.8186 72.9021 43.971 72.9586 44.1691 72.9586C44.3845 72.9586 44.5565 72.8934 44.6805 72.7609C44.8046 72.6305 44.8677 72.448 44.8677 72.2133V71.1378H45.1441L45.1463 71.1335Z" fill="black"/>
<path d="M46.4835 71.2228C46.6119 71.1533 46.7708 71.1185 46.9623 71.1185V71.388L46.897 71.3836C46.6815 71.3836 46.5118 71.4488 46.3899 71.5813C46.268 71.7139 46.2071 71.9007 46.2071 72.1398V73.1849H45.9307V71.1337H46.1962V71.5357C46.2615 71.3988 46.3572 71.2945 46.4878 71.2228H46.4835Z" fill="black"/>
<path d="M49.2728 71.1335L48.3587 73.1846H48.0736L47.1638 71.1335H47.4533L48.2216 72.8804L48.9986 71.1335H49.2728Z" fill="black"/>
<path d="M51.3983 72.2441H49.681C49.6963 72.4571 49.779 72.6287 49.927 72.7613C50.075 72.8916 50.2622 72.959 50.4885 72.959C50.6169 72.959 50.7323 72.9351 50.8411 72.8916C50.9477 72.846 51.0391 72.7787 51.1175 72.6917L51.2742 72.8721C51.1828 72.9807 51.0696 73.0655 50.9325 73.122C50.7954 73.1785 50.6452 73.2067 50.482 73.2067C50.2709 73.2067 50.0837 73.1611 49.9205 73.072C49.7572 72.9829 49.631 72.8591 49.5396 72.7004C49.4482 72.5418 49.4025 72.3637 49.4025 72.1616C49.4025 71.9595 49.446 71.7813 49.5331 71.6227C49.6201 71.4641 49.7398 71.3403 49.8922 71.2533C50.0445 71.1664 50.2165 71.1208 50.4058 71.1208C50.5952 71.1208 50.7671 71.1643 50.9173 71.2533C51.0674 71.3424 51.1871 71.4641 51.272 71.6227C51.3569 71.7792 51.4004 71.9595 51.4004 72.1616L51.3961 72.2463L51.3983 72.2441ZM49.9096 71.5445C49.7746 71.6705 49.6985 71.8357 49.681 72.0377H51.1371C51.1197 71.8357 51.0435 71.6705 50.9086 71.5445C50.7736 71.4185 50.6082 71.3555 50.4058 71.3555C50.2034 71.3555 50.0423 71.4185 49.9074 71.5445H49.9096Z" fill="black"/>
<path d="M53.6573 71.1335L52.63 73.4301C52.5473 73.6235 52.4494 73.7582 52.3406 73.8386C52.2318 73.919 52.099 73.9603 51.9466 73.9603C51.8487 73.9603 51.7551 73.9451 51.6702 73.9147C51.5854 73.8842 51.5092 73.8364 51.4482 73.7734L51.5767 73.567C51.6811 73.6713 51.8052 73.7234 51.951 73.7234C52.0446 73.7234 52.1251 73.6974 52.1904 73.6452C52.2557 73.5931 52.3188 73.504 52.3754 73.3801L52.4646 73.1824L51.5462 71.1356H51.8357L52.6083 72.8782L53.3809 71.1356H53.6551L53.6573 71.1335Z" fill="black"/>
<path d="M54.0913 73.1328C53.939 73.085 53.8193 73.0242 53.7344 72.9525L53.8584 72.7352C53.9455 72.8026 54.0521 72.8569 54.1827 72.9003C54.3133 72.9438 54.4482 72.9655 54.5897 72.9655C54.7769 72.9655 54.9162 72.9351 55.0054 72.8786C55.0946 72.8199 55.1404 72.7374 55.1404 72.6309C55.1404 72.5549 55.1164 72.4962 55.0664 72.4527C55.0163 72.4093 54.9532 72.3767 54.8792 72.355C54.8052 72.3332 54.7029 72.3115 54.5788 72.2898C54.4112 72.2594 54.2785 72.2268 54.1762 72.1942C54.0739 72.1616 53.989 72.1073 53.9172 72.029C53.8454 71.9508 53.8106 71.8422 53.8106 71.7053C53.8106 71.5336 53.8824 71.3924 54.026 71.2838C54.1697 71.1751 54.3677 71.1208 54.6224 71.1208C54.7551 71.1208 54.8879 71.1382 55.0206 71.1729C55.1534 71.2077 55.2622 71.2533 55.3493 71.312L55.2274 71.5336C55.0576 71.4163 54.8574 71.3576 54.6224 71.3576C54.4461 71.3576 54.3111 71.3881 54.2219 71.4511C54.1327 71.5141 54.087 71.5945 54.087 71.6966C54.087 71.7748 54.1131 71.8378 54.1631 71.8835C54.2132 71.9291 54.2763 71.9639 54.3525 71.9878C54.4287 72.0095 54.5331 72.0334 54.6659 72.0551C54.8291 72.0855 54.9619 72.1181 55.0598 72.1485C55.1578 72.179 55.2426 72.2333 55.3145 72.3093C55.3841 72.3854 55.4189 72.4897 55.4189 72.6222C55.4189 72.8026 55.3449 72.9438 55.1948 73.0503C55.0446 73.1567 54.8378 73.2089 54.5723 73.2089C54.4047 73.2089 54.2458 73.185 54.0935 73.1372L54.0913 73.1328Z" fill="black"/>
<path d="M61.7886 73.0589C61.6167 72.9481 61.4818 72.7873 61.3816 72.5744C61.2815 72.3615 61.2336 72.1116 61.2336 71.8204C61.2336 71.5293 61.2837 71.2772 61.3816 71.0665C61.4796 70.8557 61.6167 70.6927 61.7886 70.5841C61.9606 70.4733 62.1565 70.419 62.3741 70.419C62.5917 70.419 62.7898 70.4733 62.9617 70.5841C63.1337 70.6949 63.2708 70.8557 63.3709 71.0665C63.4688 71.2794 63.5189 71.5293 63.5189 71.8204C63.5189 72.1116 63.4688 72.3636 63.3709 72.5744C63.2708 72.7852 63.1359 72.9481 62.9617 73.0589C62.7876 73.1697 62.5917 73.2241 62.3741 73.2241C62.1565 73.2241 61.9606 73.1697 61.7886 73.0589ZM62.8377 72.5418C62.9509 72.381 63.0074 72.1398 63.0074 71.8204C63.0074 71.501 62.9509 71.2598 62.8377 71.0991C62.7245 70.9383 62.57 70.8579 62.3741 70.8579C62.1782 70.8579 62.028 70.9383 61.9149 71.0991C61.8017 71.2598 61.7451 71.501 61.7451 71.8204C61.7451 72.1398 61.8017 72.381 61.9149 72.5418C62.028 72.7026 62.1804 72.783 62.3741 72.783C62.5678 72.783 62.7245 72.7026 62.8377 72.5418Z" fill="#007AFF"/>
<path d="M64.783 69.9017H65.2204L63.932 73.5737H63.4945L64.783 69.9017Z" fill="#007AFF"/>
<path d="M67.2374 72.0133C67.3136 72.1241 67.3528 72.2523 67.3528 72.4001C67.3528 72.5674 67.3071 72.713 67.2135 72.8368C67.1221 72.9607 66.9893 73.0563 66.8217 73.1236C66.6541 73.191 66.4561 73.2236 66.2319 73.2236C66.0077 73.2236 65.8119 73.191 65.6443 73.1236C65.4767 73.0584 65.3461 72.9628 65.2569 72.8368C65.1655 72.713 65.1198 72.5674 65.1198 72.4001C65.1198 72.2523 65.1568 72.1219 65.2329 72.0133C65.3091 71.9025 65.4157 71.8156 65.5572 71.7504C65.4484 71.6917 65.3635 71.6113 65.3047 71.5136C65.246 71.4158 65.2177 71.3028 65.2177 71.1768C65.2177 71.0225 65.259 70.89 65.3439 70.7748C65.4288 70.6596 65.5485 70.5727 65.7009 70.5097C65.8532 70.4467 66.0317 70.4163 66.2319 70.4163C66.4321 70.4163 66.6128 70.4467 66.7673 70.5097C66.9218 70.5727 67.0415 70.6596 67.1264 70.7748C67.2113 70.89 67.2548 71.0225 67.2548 71.1768C67.2548 71.305 67.2244 71.4158 67.1656 71.5114C67.1068 71.607 67.0198 71.6874 66.9088 71.7482C67.0524 71.8134 67.1612 71.9003 67.2396 72.0111L67.2374 72.0133ZM66.6781 72.7086C66.7869 72.6304 66.8413 72.5217 66.8413 72.3849C66.8413 72.248 66.7869 72.1437 66.6781 72.0655C66.5693 71.9872 66.4213 71.9481 66.2319 71.9481C66.0426 71.9481 65.8967 71.9872 65.7901 72.0655C65.6835 72.1437 65.629 72.2501 65.629 72.3849C65.629 72.5196 65.6813 72.6304 65.7901 72.7086C65.8989 72.7868 66.0447 72.8259 66.2319 72.8259C66.4191 72.8259 66.5671 72.7868 66.6781 72.7086ZM65.8554 70.916C65.764 70.9834 65.7161 71.079 65.7161 71.2007C65.7161 71.3224 65.7618 71.4114 65.8554 71.4788C65.9468 71.5483 66.073 71.5831 66.2319 71.5831C66.3908 71.5831 66.5214 71.5483 66.615 71.4788C66.7085 71.4093 66.7564 71.318 66.7564 71.2007C66.7564 71.0833 66.7085 70.9834 66.615 70.916C66.5192 70.8487 66.393 70.8139 66.2341 70.8139C66.0752 70.8139 65.949 70.8487 65.8576 70.916H65.8554Z" fill="#007AFF"/>
<path d="M81.8239 70.7057H80.8641V70.4558H83.0754V70.7057H82.1156V73.1849H81.8261V70.7057H81.8239Z" fill="black"/>
<path d="M84.6985 71.3182C84.8421 71.4529 84.914 71.6506 84.914 71.9135V73.1846H84.6484V72.8652C84.5853 72.9717 84.4939 73.0542 84.3742 73.1151C84.2523 73.1759 84.1087 73.2042 83.9433 73.2042C83.7147 73.2042 83.5319 73.1498 83.397 73.0412C83.262 72.9326 83.1946 72.787 83.1946 72.6088C83.1946 72.4306 83.2577 72.2938 83.3839 72.1873C83.5102 72.0808 83.7104 72.0265 83.9868 72.0265H84.6397V71.9027C84.6397 71.7267 84.5897 71.5919 84.4917 71.4985C84.3938 71.4072 84.248 71.3594 84.0586 71.3594C83.928 71.3594 83.804 71.3812 83.6843 71.4246C83.5646 71.4681 83.4623 71.5268 83.3752 71.6028L83.2512 71.3964C83.3556 71.3073 83.4797 71.2399 83.6255 71.1921C83.7713 71.1443 83.9237 71.1204 84.0869 71.1204C84.3546 71.1204 84.5614 71.1878 84.7028 71.3203L84.6985 71.3182ZM84.3851 72.8782C84.4983 72.8065 84.581 72.7044 84.6354 72.5675V72.2329H83.9912C83.6408 72.2329 83.4645 72.3546 83.4645 72.6001C83.4645 72.7196 83.5102 72.8131 83.6016 72.8826C83.693 72.9521 83.8192 72.9869 83.9846 72.9869C84.15 72.9869 84.2741 72.9521 84.3873 72.8804L84.3851 72.8782Z" fill="black"/>
<path d="M85.7396 73.1325C85.5873 73.0847 85.4676 73.0238 85.3827 72.9521L85.5067 72.7348C85.5938 72.8022 85.7004 72.8565 85.831 72.9C85.9616 72.9434 86.0966 72.9652 86.238 72.9652C86.4252 72.9652 86.5645 72.9347 86.6537 72.8782C86.743 72.8196 86.7887 72.737 86.7887 72.6305C86.7887 72.5545 86.7647 72.4958 86.7147 72.4524C86.6646 72.4089 86.6015 72.3763 86.5275 72.3546C86.4535 72.3329 86.3512 72.3111 86.2271 72.2894C86.0596 72.259 85.9268 72.2264 85.8245 72.1938C85.7222 72.1612 85.6373 72.1069 85.5655 72.0287C85.4937 71.9505 85.4589 71.8418 85.4589 71.7049C85.4589 71.5333 85.5307 71.392 85.6743 71.2834C85.818 71.1748 86.016 71.1204 86.2707 71.1204C86.4034 71.1204 86.5362 71.1378 86.669 71.1726C86.8017 71.2073 86.9105 71.253 86.9976 71.3116L86.8757 71.5333C86.706 71.4159 86.5057 71.3573 86.2707 71.3573C86.0944 71.3573 85.9594 71.3877 85.8702 71.4507C85.781 71.5137 85.7353 71.5941 85.7353 71.6962C85.7353 71.7745 85.7614 71.8375 85.8114 71.8831C85.8615 71.9287 85.9246 71.9635 86.0008 71.9874C86.077 72.0091 86.1814 72.033 86.3142 72.0547C86.4774 72.0852 86.6102 72.1178 86.7081 72.1482C86.8061 72.1786 86.891 72.2329 86.9628 72.309C87.0324 72.385 87.0672 72.4893 87.0672 72.6219C87.0672 72.8022 86.9933 72.9434 86.8431 73.0499C86.6929 73.1564 86.4861 73.2085 86.2206 73.2085C86.053 73.2085 85.8942 73.1846 85.7418 73.1368L85.7396 73.1325Z" fill="black"/>
<path d="M88.3398 72.1547L87.8566 72.5979V73.1824H87.5802V70.2904H87.8566V72.2525L89.0819 71.1335H89.4258L88.5465 71.9722L89.5063 73.1846H89.1668L88.3398 72.1547Z" fill="black"/>
<path d="M89.9355 73.1325C89.7832 73.0847 89.6635 73.0238 89.5786 72.9521L89.7027 72.7348C89.7897 72.8022 89.8964 72.8565 90.027 72.9C90.1575 72.9434 90.2925 72.9652 90.434 72.9652C90.6211 72.9652 90.7604 72.9347 90.8497 72.8782C90.9389 72.8196 90.9846 72.737 90.9846 72.6305C90.9846 72.5545 90.9606 72.4958 90.9106 72.4524C90.8605 72.4089 90.7974 72.3763 90.7234 72.3546C90.6494 72.3329 90.5471 72.3111 90.4231 72.2894C90.2555 72.259 90.1227 72.2264 90.0204 72.1938C89.9181 72.1612 89.8333 72.1069 89.7614 72.0287C89.6896 71.9505 89.6548 71.8418 89.6548 71.7049C89.6548 71.5333 89.7266 71.392 89.8703 71.2834C90.0139 71.1748 90.212 71.1204 90.4666 71.1204C90.5994 71.1204 90.7321 71.1378 90.8649 71.1726C90.9977 71.2073 91.1065 71.253 91.1935 71.3116L91.0716 71.5333C90.9019 71.4159 90.7017 71.3573 90.4666 71.3573C90.2903 71.3573 90.1554 71.3877 90.0661 71.4507C89.9769 71.5137 89.9312 71.5941 89.9312 71.6962C89.9312 71.7745 89.9573 71.8375 90.0074 71.8831C90.0574 71.9287 90.1205 71.9635 90.1967 71.9874C90.2729 72.0091 90.3774 72.033 90.5101 72.0547C90.6734 72.0852 90.8061 72.1178 90.9041 72.1482C91.002 72.1786 91.0869 72.2329 91.1587 72.309C91.2284 72.385 91.2632 72.4893 91.2632 72.6219C91.2632 72.8022 91.1892 72.9434 91.039 73.0499C90.8888 73.1564 90.6821 73.2085 90.4165 73.2085C90.249 73.2085 90.0901 73.1846 89.9377 73.1368L89.9355 73.1325Z" fill="black"/>
<path d="M98.3616 73.0592C98.1897 72.9484 98.0548 72.7876 97.9546 72.5747C97.8545 72.3618 97.8066 72.1119 97.8066 71.8207C97.8066 71.5296 97.8567 71.2775 97.9546 71.0668C98.0526 70.856 98.1897 70.693 98.3616 70.5844C98.5336 70.4736 98.7294 70.4193 98.9471 70.4193C99.1647 70.4193 99.3628 70.4736 99.5347 70.5844C99.7067 70.6952 99.8438 70.856 99.9439 71.0668C100.042 71.2797 100.092 71.5296 100.092 71.8207C100.092 72.1119 100.042 72.3639 99.9439 72.5747C99.8438 72.7855 99.7088 72.9484 99.5347 73.0592C99.3606 73.17 99.1647 73.2244 98.9471 73.2244C98.7294 73.2244 98.5336 73.17 98.3616 73.0592ZM99.4107 72.5421C99.5238 72.3813 99.5804 72.1401 99.5804 71.8207C99.5804 71.5013 99.5238 71.2601 99.4107 71.0993C99.2975 70.9386 99.143 70.8582 98.9471 70.8582C98.7512 70.8582 98.601 70.9386 98.4879 71.0993C98.3747 71.2601 98.3181 71.5013 98.3181 71.8207C98.3181 72.1401 98.3747 72.3813 98.4879 72.5421C98.601 72.7029 98.7534 72.7833 98.9471 72.7833C99.1408 72.7833 99.2975 72.7029 99.4107 72.5421Z" fill="#007AFF"/>
<path d="M101.359 69.9017H101.797L100.508 73.5737H100.071L101.359 69.9017Z" fill="#007AFF"/>
<path d="M103.81 72.0133C103.887 72.1241 103.926 72.2523 103.926 72.4001C103.926 72.5674 103.88 72.713 103.786 72.8368C103.695 72.9607 103.562 73.0563 103.395 73.1236C103.227 73.191 103.029 73.2236 102.805 73.2236C102.581 73.2236 102.385 73.191 102.217 73.1236C102.05 73.0584 101.919 72.9628 101.83 72.8368C101.738 72.713 101.693 72.5674 101.693 72.4001C101.693 72.2523 101.73 72.1219 101.806 72.0133C101.882 71.9025 101.989 71.8156 102.13 71.7504C102.021 71.6917 101.937 71.6113 101.878 71.5136C101.819 71.4158 101.791 71.3028 101.791 71.1768C101.791 71.0225 101.832 70.89 101.917 70.7748C102.002 70.6596 102.122 70.5727 102.274 70.5097C102.426 70.4467 102.605 70.4163 102.805 70.4163C103.005 70.4163 103.186 70.4467 103.34 70.5097C103.495 70.5727 103.615 70.6596 103.699 70.7748C103.784 70.89 103.828 71.0225 103.828 71.1768C103.828 71.305 103.797 71.4158 103.739 71.5114C103.68 71.607 103.593 71.6874 103.482 71.7482C103.625 71.8134 103.734 71.9003 103.813 72.0111L103.81 72.0133ZM103.251 72.7086C103.36 72.6304 103.414 72.5217 103.414 72.3849C103.414 72.248 103.36 72.1437 103.251 72.0655C103.142 71.9872 102.994 71.9481 102.805 71.9481C102.616 71.9481 102.47 71.9872 102.363 72.0655C102.256 72.1437 102.202 72.2501 102.202 72.3849C102.202 72.5196 102.254 72.6304 102.363 72.7086C102.472 72.7868 102.618 72.8259 102.805 72.8259C102.992 72.8259 103.14 72.7868 103.251 72.7086ZM102.428 70.916C102.337 70.9834 102.289 71.079 102.289 71.2007C102.289 71.3224 102.335 71.4114 102.428 71.4788C102.52 71.5483 102.646 71.5831 102.805 71.5831C102.964 71.5831 103.094 71.5483 103.188 71.4788C103.282 71.4093 103.329 71.318 103.329 71.2007C103.329 71.0833 103.282 70.9834 103.188 70.916C103.092 70.8487 102.966 70.8139 102.807 70.8139C102.648 70.8139 102.522 70.8487 102.431 70.916H102.428Z" fill="#007AFF"/>
<path d="M115.732 73.1114C115.545 73.0462 115.401 72.9615 115.301 72.855L115.414 72.6334C115.512 72.7312 115.645 72.8115 115.808 72.8724C115.972 72.9332 116.141 72.9636 116.315 72.9636C116.559 72.9636 116.744 72.918 116.866 72.8289C116.988 72.7398 117.049 72.6225 117.049 72.4791C117.049 72.3705 117.016 72.2836 116.949 72.2184C116.881 72.1532 116.801 72.1032 116.705 72.0684C116.609 72.0337 116.474 71.9946 116.302 71.9533C116.098 71.9011 115.932 71.8512 115.811 71.8034C115.689 71.7556 115.584 71.6817 115.497 71.5839C115.41 71.484 115.367 71.3514 115.367 71.1819C115.367 71.045 115.404 70.919 115.475 70.806C115.547 70.6931 115.66 70.6018 115.811 70.5344C115.961 70.4671 116.15 70.4323 116.372 70.4323C116.529 70.4323 116.681 70.454 116.831 70.4975C116.981 70.541 117.11 70.5996 117.221 70.6757L117.123 70.906C117.008 70.8299 116.886 70.7734 116.755 70.7365C116.625 70.6996 116.498 70.68 116.372 70.68C116.133 70.68 115.952 70.7256 115.83 70.8191C115.708 70.9125 115.649 71.0298 115.649 71.1754C115.649 71.2841 115.682 71.3731 115.75 71.4383C115.815 71.5057 115.9 71.5557 116 71.5904C116.1 71.6252 116.235 71.6643 116.405 71.7056C116.605 71.7556 116.768 71.8034 116.89 71.8512C117.014 71.899 117.119 71.9728 117.203 72.0684C117.288 72.1662 117.332 72.2988 117.332 72.4639C117.332 72.6008 117.295 72.7268 117.221 72.8398C117.147 72.9528 117.032 73.0419 116.879 73.1092C116.725 73.1766 116.537 73.2092 116.313 73.2092C116.111 73.2092 115.915 73.1766 115.73 73.1114H115.732Z" fill="black"/>
<path d="M119.24 71.319C119.384 71.4537 119.455 71.6514 119.455 71.9143V73.1854H119.19V72.866C119.127 72.9725 119.035 73.055 118.916 73.1159C118.794 73.1767 118.65 73.205 118.485 73.205C118.256 73.205 118.073 73.1506 117.938 73.042C117.803 72.9334 117.736 72.7878 117.736 72.6096C117.736 72.4314 117.799 72.2946 117.925 72.1881C118.052 72.0816 118.252 72.0273 118.528 72.0273H119.181V71.9034C119.181 71.7274 119.131 71.5927 119.033 71.4993C118.935 71.408 118.789 71.3602 118.6 71.3602C118.469 71.3602 118.345 71.382 118.226 71.4254C118.106 71.4689 118.004 71.5275 117.917 71.6036L117.793 71.3972C117.897 71.3081 118.021 71.2407 118.167 71.1929C118.313 71.1451 118.465 71.1212 118.628 71.1212C118.896 71.1212 119.103 71.1886 119.244 71.3211L119.24 71.319ZM118.926 72.879C119.04 72.8073 119.122 72.7052 119.177 72.5683V72.2337H118.533C118.182 72.2337 118.006 72.3554 118.006 72.6009C118.006 72.7204 118.052 72.8139 118.143 72.8834C118.234 72.9529 118.361 72.9877 118.526 72.9877C118.691 72.9877 118.815 72.9529 118.929 72.8812L118.926 72.879Z" fill="black"/>
<path d="M120.209 70.2932H120.485V73.1852H120.209V70.2932Z" fill="black"/>
<path d="M123.046 72.2446H121.328C121.344 72.4575 121.426 72.6292 121.574 72.7617C121.722 72.8921 121.909 72.9594 122.136 72.9594C122.264 72.9594 122.38 72.9355 122.488 72.8921C122.595 72.8464 122.686 72.7791 122.765 72.6922L122.922 72.8725C122.83 72.9812 122.717 73.0659 122.58 73.1224C122.443 73.1789 122.293 73.2071 122.129 73.2071C121.918 73.2071 121.731 73.1615 121.568 73.0724C121.405 72.9833 121.278 72.8595 121.187 72.7009C121.095 72.5423 121.05 72.3641 121.05 72.162C121.05 71.9599 121.093 71.7818 121.18 71.6232C121.267 71.4645 121.387 71.3407 121.54 71.2538C121.692 71.1669 121.864 71.1212 122.053 71.1212C122.242 71.1212 122.414 71.1647 122.565 71.2538C122.715 71.3429 122.834 71.4645 122.919 71.6232C123.004 71.7796 123.048 71.9599 123.048 72.162L123.043 72.2467L123.046 72.2446ZM121.557 71.5449C121.422 71.6709 121.346 71.8361 121.328 72.0382H122.784C122.767 71.8361 122.691 71.6709 122.556 71.5449C122.421 71.4189 122.256 71.3559 122.053 71.3559C121.851 71.3559 121.69 71.4189 121.555 71.5449H121.557Z" fill="black"/>
<path d="M123.69 73.1333C123.537 73.0855 123.418 73.0246 123.333 72.9529L123.457 72.7356C123.544 72.803 123.651 72.8573 123.781 72.9008C123.912 72.9442 124.047 72.966 124.188 72.966C124.375 72.966 124.515 72.9355 124.604 72.879C124.693 72.8204 124.739 72.7378 124.739 72.6313C124.739 72.5553 124.715 72.4966 124.665 72.4532C124.615 72.4097 124.552 72.3771 124.478 72.3554C124.404 72.3337 124.301 72.3119 124.177 72.2902C124.01 72.2598 123.877 72.2272 123.775 72.1946C123.672 72.162 123.587 72.1077 123.516 72.0295C123.444 71.9512 123.409 71.8426 123.409 71.7057C123.409 71.5341 123.481 71.3928 123.624 71.2842C123.768 71.1756 123.966 71.1212 124.221 71.1212C124.354 71.1212 124.486 71.1386 124.619 71.1734C124.752 71.2081 124.861 71.2538 124.948 71.3124L124.826 71.5341C124.656 71.4167 124.456 71.3581 124.221 71.3581C124.044 71.3581 123.91 71.3885 123.82 71.4515C123.731 71.5145 123.685 71.5949 123.685 71.697C123.685 71.7752 123.711 71.8383 123.762 71.8839C123.812 71.9295 123.875 71.9643 123.951 71.9882C124.027 72.0099 124.132 72.0338 124.264 72.0555C124.428 72.086 124.56 72.1185 124.658 72.149C124.756 72.1794 124.841 72.2337 124.913 72.3098C124.983 72.3858 125.017 72.4901 125.017 72.6226C125.017 72.803 124.943 72.9442 124.793 73.0507C124.643 73.1572 124.436 73.2093 124.171 73.2093C124.003 73.2093 123.844 73.1854 123.692 73.1376L123.69 73.1333Z" fill="black"/>
<path d="M132.634 63.0592C132.462 62.9484 132.327 62.7876 132.227 62.5747C132.127 62.3618 132.079 62.1119 132.079 61.8207C132.079 61.5296 132.129 61.2775 132.227 61.0668C132.325 60.856 132.462 60.693 132.634 60.5844C132.806 60.4736 133.002 60.4193 133.22 60.4193C133.437 60.4193 133.635 60.4736 133.807 60.5844C133.979 60.6952 134.116 60.856 134.216 61.0668C134.314 61.2797 134.364 61.5296 134.364 61.8207C134.364 62.1119 134.314 62.3639 134.216 62.5747C134.116 62.7855 133.981 62.9484 133.807 63.0592C133.633 63.17 133.437 63.2244 133.22 63.2244C133.002 63.2244 132.806 63.17 132.634 63.0592ZM133.683 62.5421C133.796 62.3813 133.853 62.1401 133.853 61.8207C133.853 61.5013 133.796 61.2601 133.683 61.0993C133.57 60.9386 133.415 60.8582 133.22 60.8582C133.024 60.8582 132.874 60.9386 132.76 61.0993C132.647 61.2601 132.591 61.5013 132.591 61.8207C132.591 62.1401 132.647 62.3813 132.76 62.5421C132.874 62.7029 133.026 62.7833 133.22 62.7833C133.413 62.7833 133.57 62.7029 133.683 62.5421Z" fill="#007AFF"/>
<path d="M135.628 59.9017H136.066L134.777 63.5737H134.34L135.628 59.9017Z" fill="#007AFF"/>
<path d="M138.083 62.0133C138.159 62.1241 138.198 62.2523 138.198 62.4001C138.198 62.5674 138.153 62.713 138.059 62.8368C137.968 62.9607 137.835 63.0563 137.667 63.1236C137.5 63.191 137.302 63.2236 137.077 63.2236C136.853 63.2236 136.657 63.191 136.49 63.1236C136.322 63.0584 136.192 62.9628 136.102 62.8368C136.011 62.713 135.965 62.5674 135.965 62.4001C135.965 62.2523 136.002 62.1219 136.078 62.0133C136.155 61.9025 136.261 61.8156 136.403 61.7504C136.294 61.6917 136.209 61.6113 136.15 61.5136C136.091 61.4158 136.063 61.3028 136.063 61.1768C136.063 61.0225 136.105 60.89 136.189 60.7748C136.274 60.6596 136.394 60.5727 136.546 60.5097C136.699 60.4467 136.877 60.4163 137.077 60.4163C137.278 60.4163 137.458 60.4467 137.613 60.5097C137.767 60.5727 137.887 60.6596 137.972 60.7748C138.057 60.89 138.1 61.0225 138.1 61.1768C138.1 61.305 138.07 61.4158 138.011 61.5114C137.952 61.607 137.865 61.6874 137.754 61.7482C137.898 61.8134 138.007 61.9003 138.085 62.0111L138.083 62.0133ZM137.524 62.7086C137.632 62.6304 137.687 62.5217 137.687 62.3849C137.687 62.248 137.632 62.1437 137.524 62.0655C137.415 61.9872 137.267 61.9481 137.077 61.9481C136.888 61.9481 136.742 61.9872 136.636 62.0655C136.529 62.1437 136.475 62.2501 136.475 62.3849C136.475 62.5196 136.527 62.6304 136.636 62.7086C136.744 62.7868 136.89 62.8259 137.077 62.8259C137.265 62.8259 137.413 62.7868 137.524 62.7086ZM136.701 60.916C136.609 60.9834 136.562 61.079 136.562 61.2007C136.562 61.3224 136.607 61.4114 136.701 61.4788C136.792 61.5483 136.918 61.5831 137.077 61.5831C137.236 61.5831 137.367 61.5483 137.46 61.4788C137.554 61.4093 137.602 61.318 137.602 61.2007C137.602 61.0833 137.554 60.9834 137.46 60.916C137.365 60.8487 137.238 60.8139 137.08 60.8139C136.921 60.8139 136.794 60.8487 136.703 60.916H136.701Z" fill="#007AFF"/>
<path d="M97.6824 105.283C104.399 105.283 109.844 99.8474 109.844 93.1417C109.844 86.436 104.399 81 97.6824 81C90.9656 81 85.5205 86.436 85.5205 93.1417C85.5205 99.8474 90.9656 105.283 97.6824 105.283Z" fill="#007AFF"/>
<path d="M102.218 92.0898L98.0149 88.1679C97.832 87.9962 97.5469 87.9962 97.3663 88.1679L93.1614 92.0898C93.0656 92.1789 93.0112 92.3049 93.0112 92.4375V97.7674C93.0112 98.0303 93.2245 98.2432 93.4879 98.2432H96.3825C96.6459 98.2432 96.8592 98.0303 96.8592 97.7674V94.5581H98.5263V97.7674C98.5263 98.0303 98.7396 98.2432 99.003 98.2432H101.898C102.161 98.2432 102.374 98.0303 102.374 97.7674V92.4375C102.374 92.3049 102.32 92.1811 102.224 92.0898H102.218ZM101.417 97.2915H99.4731V94.0823C99.4731 93.8194 99.2598 93.6064 98.9964 93.6064H96.3782C96.1148 93.6064 95.9015 93.8194 95.9015 94.0823V97.2915H93.958V92.6439L97.6884 89.1652L101.414 92.6417V97.2894L101.417 97.2915Z" fill="white"/>
<path d="M27.5057 62.5166C27.1749 62.5166 26.8593 62.3579 26.6591 62.095L24.8374 59.6702C24.4021 59.0922 24.1714 58.4012 24.1714 57.6755C24.1714 56.7868 24.5174 55.9525 25.1464 55.3224C25.7754 54.6944 26.6133 54.3489 27.5035 54.3489C28.3937 54.3489 29.2294 54.6944 29.8606 55.3224C30.4896 55.9503 30.8356 56.7868 30.8356 57.6755C30.8356 58.4012 30.6049 59.09 30.1696 59.6702L28.348 62.095C28.1499 62.3601 27.8322 62.5166 27.5013 62.5166H27.5057ZM25.3162 59.3117L27.1379 61.7365C27.2249 61.8538 27.3599 61.9212 27.5057 61.9212C27.6515 61.9212 27.7864 61.8538 27.8735 61.7365L29.6952 59.3117C30.0521 58.8358 30.2415 58.2709 30.2415 57.6755C30.2415 56.1698 29.014 54.9443 27.5057 54.9443C25.9974 54.9443 24.7699 56.1698 24.7699 57.6755C24.7699 58.2709 24.9593 58.838 25.3162 59.3117ZM27.5057 58.7293C26.9224 58.7293 26.4479 58.2557 26.4479 57.6733C26.4479 57.091 26.9224 56.6174 27.5057 56.6174C28.089 56.6174 28.5634 57.091 28.5634 57.6733C28.5634 58.2557 28.089 58.7293 27.5057 58.7293ZM27.5057 57.2149C27.2532 57.2149 27.0465 57.4213 27.0465 57.6733C27.0465 57.9254 27.2532 58.1318 27.5057 58.1318C27.7582 58.1318 27.9649 57.9254 27.9649 57.6733C27.9649 57.4213 27.7582 57.2149 27.5057 57.2149Z" fill="#007AFF"/>
<path d="M29.318 63.5812C29.318 63.416 29.1852 63.2835 29.0198 63.2835H25.9859C25.8204 63.2835 25.6877 63.416 25.6877 63.5812C25.6877 63.7463 25.8204 63.8788 25.9859 63.8788H29.0198C29.1852 63.8788 29.318 63.7463 29.318 63.5812Z" fill="#007AFF"/>
<g filter="url(#filter1_d_136_678)">
<path d="M113.392 92.7809C113.033 92.7809 112.75 93.0742 112.75 93.4306C112.75 93.4327 112.75 93.4349 112.75 93.4371C112.75 101.785 105.971 108.553 97.6089 108.553C89.2471 108.553 82.4675 101.785 82.4675 93.4371C82.4675 93.4349 82.4675 93.4327 82.4675 93.4306C82.4675 93.072 82.1845 92.7809 81.8254 92.7809H13V119.398C13 127.718 19.7557 134.46 28.0871 134.46H167.129C175.462 134.46 182.216 127.715 182.216 119.398V92.7809H113.39H113.392Z" fill="#007AFF"/>
</g>
<path d="M23.8571 121.462C23.5894 121.316 23.3805 121.116 23.2282 120.86C23.0758 120.603 22.9996 120.314 22.9996 119.993C22.9996 119.671 23.0758 119.382 23.2303 119.126C23.3827 118.87 23.5938 118.67 23.8615 118.524C24.1292 118.378 24.4296 118.307 24.7604 118.307C25.0302 118.307 25.274 118.355 25.4982 118.448C25.7202 118.541 25.9074 118.678 26.0619 118.856L25.6679 119.226C25.4307 118.969 25.1369 118.841 24.7908 118.841C24.5667 118.841 24.3643 118.891 24.1858 118.989C24.0073 119.087 23.868 119.224 23.7679 119.4C23.6678 119.576 23.6177 119.773 23.6177 119.995C23.6177 120.217 23.6678 120.414 23.7679 120.59C23.868 120.766 24.0073 120.901 24.1858 121.001C24.3643 121.099 24.5667 121.149 24.7908 121.149C25.1369 121.149 25.4307 121.018 25.6679 120.76L26.0619 121.134C25.9095 121.312 25.7202 121.447 25.496 121.542C25.2718 121.636 25.0259 121.683 24.7582 121.683C24.4274 121.683 24.127 121.612 23.8593 121.466L23.8571 121.462Z" fill="white"/>
<path d="M26.9335 121.503C26.7311 121.395 26.5723 121.242 26.4569 121.047C26.3437 120.851 26.285 120.632 26.285 120.384C26.285 120.136 26.3416 119.917 26.4569 119.724C26.5723 119.53 26.729 119.378 26.9335 119.269C27.136 119.161 27.3645 119.107 27.6191 119.107C27.8738 119.107 28.1045 119.161 28.3091 119.269C28.5136 119.378 28.6703 119.53 28.7857 119.724C28.8989 119.917 28.9576 120.136 28.9576 120.384C28.9576 120.632 28.901 120.851 28.7857 121.047C28.6703 121.242 28.5136 121.395 28.3091 121.503C28.1045 121.612 27.8759 121.666 27.6191 121.666C27.3623 121.666 27.1381 121.612 26.9335 121.503ZM28.1524 120.951C28.2938 120.808 28.3635 120.619 28.3635 120.384C28.3635 120.149 28.2938 119.96 28.1524 119.817C28.0109 119.674 27.8346 119.602 27.617 119.602C27.3993 119.602 27.223 119.674 27.0837 119.817C26.9444 119.96 26.8748 120.149 26.8748 120.384C26.8748 120.619 26.9444 120.808 27.0837 120.951C27.223 121.095 27.4015 121.166 27.617 121.166C27.8324 121.166 28.0109 121.095 28.1524 120.951Z" fill="white"/>
<path d="M31.7015 119.382C31.893 119.567 31.9888 119.839 31.9888 120.201V121.636H31.4033V120.278C31.4033 120.058 31.3511 119.895 31.2488 119.784C31.1465 119.673 30.9985 119.617 30.807 119.617C30.5915 119.617 30.4218 119.682 30.2955 119.813C30.1693 119.943 30.1083 120.128 30.1083 120.373V121.638H29.5229V119.137H30.0822V119.461C30.1802 119.345 30.2999 119.258 30.4479 119.198C30.5959 119.139 30.7613 119.109 30.9441 119.109C31.2597 119.109 31.5143 119.2 31.7037 119.385L31.7015 119.382Z" fill="white"/>
<path d="M34.9141 119.382C35.1056 119.567 35.1992 119.839 35.1992 120.201V121.636H34.6137V120.278C34.6137 120.058 34.5615 119.895 34.4592 119.784C34.3569 119.673 34.2089 119.617 34.0196 119.617C33.8041 119.617 33.6343 119.682 33.5081 119.813C33.3819 119.943 33.3209 120.128 33.3209 120.373V121.638H32.7355V119.137H33.2948V119.461C33.3928 119.345 33.5146 119.258 33.6605 119.198C33.8085 119.139 33.9739 119.109 34.1567 119.109C34.4723 119.109 34.7247 119.2 34.9163 119.385L34.9141 119.382Z" fill="white"/>
<path d="M38.3186 120.571H36.3533C36.3881 120.756 36.4773 120.901 36.6232 121.01C36.769 121.119 36.9496 121.171 37.1651 121.171C37.4393 121.171 37.6679 121.079 37.8463 120.899L38.1597 121.26C38.0465 121.394 37.9051 121.494 37.7331 121.564C37.5612 121.634 37.3675 121.666 37.152 121.666C36.8778 121.666 36.634 121.612 36.4251 121.503C36.2162 121.395 36.0529 121.242 35.9398 121.047C35.8266 120.851 35.7678 120.632 35.7678 120.384C35.7678 120.136 35.8222 119.921 35.9354 119.726C36.0464 119.53 36.2009 119.378 36.3968 119.269C36.5927 119.161 36.8169 119.107 37.0628 119.107C37.3087 119.107 37.5242 119.161 37.7179 119.267C37.9094 119.376 38.0596 119.526 38.1684 119.721C38.2773 119.917 38.3295 120.143 38.3295 120.397C38.3295 120.438 38.3251 120.495 38.3208 120.571H38.3186ZM36.5862 119.741C36.4556 119.852 36.3772 120 36.3489 120.184H37.7701C37.744 120.004 37.6678 119.856 37.5416 119.743C37.4132 119.63 37.2543 119.574 37.0628 119.574C36.8713 119.574 36.7167 119.63 36.5862 119.741Z" fill="white"/>
<path d="M39.3405 121.503C39.1338 121.395 38.9727 121.242 38.8573 121.047C38.742 120.851 38.6832 120.632 38.6832 120.384C38.6832 120.136 38.742 119.917 38.8573 119.724C38.9727 119.53 39.1338 119.378 39.3383 119.269C39.5429 119.161 39.778 119.107 40.0391 119.107C40.2851 119.107 40.5027 119.156 40.6877 119.256C40.8749 119.356 41.0142 119.5 41.1078 119.687L40.6573 119.95C40.5854 119.834 40.4962 119.748 40.3874 119.689C40.2786 119.63 40.161 119.602 40.0326 119.602C39.8128 119.602 39.6322 119.674 39.4885 119.815C39.3449 119.956 39.273 120.147 39.273 120.384C39.273 120.621 39.3449 120.812 39.4863 120.953C39.6278 121.095 39.8106 121.166 40.0326 121.166C40.161 121.166 40.2786 121.138 40.3874 121.079C40.494 121.023 40.5854 120.936 40.6573 120.819L41.1078 121.082C41.0098 121.268 40.8684 121.414 40.6834 121.514C40.4962 121.616 40.2829 121.666 40.0391 121.666C39.7802 121.666 39.5473 121.612 39.3405 121.503Z" fill="white"/>
<path d="M43.1509 121.499C43.0812 121.555 42.9985 121.597 42.9006 121.625C42.8026 121.653 42.6982 121.666 42.5894 121.666C42.3151 121.666 42.1018 121.594 41.9517 121.451C41.8015 121.308 41.7275 121.099 41.7275 120.823V119.619H41.314V119.15H41.7275V118.579H42.3129V119.15H42.9833V119.619H42.3129V120.808C42.3129 120.93 42.3434 121.023 42.4022 121.086C42.4609 121.149 42.548 121.182 42.6612 121.182C42.7918 121.182 42.9028 121.147 42.9898 121.079L43.1531 121.497L43.1509 121.499Z" fill="white"/>
<path d="M45.897 120.571H43.9316C43.9665 120.756 44.0557 120.901 44.2015 121.01C44.3473 121.119 44.528 121.171 44.7434 121.171C45.0177 121.171 45.2462 121.079 45.4225 120.899L45.7359 121.26C45.6227 121.394 45.4813 121.494 45.3093 121.564C45.1374 121.634 44.9437 121.666 44.7282 121.666C44.454 121.666 44.2102 121.612 44.0013 121.503C43.7923 121.395 43.6291 121.242 43.5159 121.047C43.4006 120.851 43.344 120.632 43.344 120.384C43.344 120.136 43.3984 119.921 43.5094 119.726C43.6204 119.53 43.7749 119.378 43.9708 119.269C44.1689 119.161 44.3909 119.107 44.6368 119.107C44.8827 119.107 45.0982 119.161 45.2919 119.267C45.4856 119.374 45.6336 119.526 45.7424 119.721C45.8491 119.917 45.9035 120.143 45.9035 120.397C45.9035 120.438 45.9013 120.495 45.8948 120.571H45.897ZM44.1645 119.741C44.0339 119.852 43.9556 120 43.9273 120.184H45.3485C45.3224 120.004 45.2462 119.856 45.1178 119.743C44.9894 119.63 44.8305 119.574 44.639 119.574C44.4474 119.574 44.2929 119.63 44.1623 119.741H44.1645Z" fill="white"/>
<path d="M48.918 118.159V121.633H48.3543V121.31C48.2564 121.429 48.1388 121.516 47.9952 121.577C47.8516 121.636 47.6948 121.666 47.5229 121.666C47.2813 121.666 47.0659 121.614 46.8743 121.507C46.6828 121.401 46.5305 121.251 46.4216 121.055C46.3128 120.86 46.2562 120.636 46.2562 120.384C46.2562 120.132 46.3106 119.908 46.4216 119.715C46.5326 119.521 46.6828 119.371 46.8743 119.265C47.0659 119.159 47.2835 119.106 47.5229 119.106C47.6883 119.106 47.8407 119.135 47.9778 119.191C48.1149 119.248 48.2324 119.332 48.3304 119.443V118.159H48.9158H48.918ZM47.9756 121.068C48.0888 121.005 48.178 120.912 48.2433 120.795C48.3086 120.677 48.3413 120.538 48.3413 120.382C48.3413 120.225 48.3086 120.089 48.2433 119.969C48.178 119.849 48.0888 119.758 47.9756 119.695C47.8624 119.632 47.7362 119.6 47.5947 119.6C47.4533 119.6 47.327 119.632 47.2139 119.695C47.1007 119.758 47.0114 119.849 46.9462 119.969C46.8809 120.089 46.8482 120.225 46.8482 120.382C46.8482 120.538 46.8809 120.675 46.9462 120.795C47.0114 120.914 47.1007 121.005 47.2139 121.068C47.327 121.131 47.4533 121.164 47.5947 121.164C47.7362 121.164 47.8624 121.131 47.9756 121.068Z" fill="white"/>
<path d="M57.7649 121.573C57.5277 121.501 57.3427 121.405 57.2034 121.288L57.4145 120.814C57.5494 120.921 57.7148 121.008 57.9085 121.075C58.1022 121.142 58.3003 121.175 58.4962 121.175C58.7399 121.175 58.9228 121.136 59.0425 121.058C59.1622 120.979 59.2231 120.877 59.2231 120.749C59.2231 120.656 59.1905 120.578 59.123 120.517C59.0555 120.456 58.9706 120.408 58.8683 120.373C58.766 120.339 58.6246 120.299 58.4461 120.256C58.1958 120.197 57.9934 120.136 57.8389 120.078C57.6844 120.019 57.5516 119.926 57.4406 119.8C57.3296 119.674 57.2752 119.502 57.2752 119.287C57.2752 119.107 57.3252 118.941 57.4232 118.794C57.5211 118.646 57.6691 118.526 57.8694 118.439C58.0674 118.353 58.3112 118.309 58.5985 118.309C58.7987 118.309 58.9946 118.335 59.1905 118.385C59.3842 118.435 59.5517 118.507 59.6932 118.6L59.5017 119.074C59.358 118.989 59.2079 118.926 59.0512 118.883C58.8945 118.839 58.7421 118.818 58.5963 118.818C58.3547 118.818 58.1762 118.859 58.0587 118.939C57.9412 119.02 57.8824 119.128 57.8824 119.263C57.8824 119.356 57.9151 119.432 57.9825 119.493C58.05 119.552 58.1349 119.6 58.2372 119.635C58.3395 119.669 58.4809 119.708 58.6594 119.752C58.9032 119.808 59.1034 119.867 59.2601 119.928C59.4168 119.989 59.5496 120.082 59.6606 120.206C59.7716 120.33 59.8281 120.499 59.8281 120.712C59.8281 120.893 59.7781 121.058 59.6802 121.203C59.5822 121.349 59.432 121.466 59.2318 121.555C59.0316 121.644 58.7878 121.686 58.5005 121.686C58.2481 121.686 58.0021 121.649 57.7671 121.577L57.7649 121.573Z" fill="white"/>
<path d="M62.6755 119.133L61.5024 121.836C61.3936 122.107 61.2608 122.298 61.1041 122.409C60.9474 122.52 60.7581 122.576 60.5361 122.576C60.412 122.576 60.288 122.557 60.1661 122.516C60.0442 122.474 59.9441 122.418 59.8657 122.346L60.1008 121.916C60.1574 121.968 60.2227 122.012 60.301 122.042C60.3772 122.072 60.4555 122.088 60.5339 122.088C60.6362 122.088 60.7232 122.062 60.7885 122.007C60.856 121.955 60.9169 121.866 60.9735 121.74L61.0149 121.642L59.9223 119.133H60.5317L61.3196 120.982L62.1118 119.133H62.6755Z" fill="white"/>
<path d="M65.2244 119.382C65.4159 119.567 65.5095 119.839 65.5095 120.201V121.636H64.924V120.278C64.924 120.058 64.8718 119.895 64.7695 119.784C64.6672 119.673 64.5192 119.617 64.3277 119.617C64.1122 119.617 63.9424 119.682 63.8162 119.813C63.6922 119.943 63.629 120.128 63.629 120.373V121.638H63.0436V119.137H63.6029V119.461C63.7009 119.345 63.8206 119.258 63.9686 119.198C64.1166 119.139 64.282 119.109 64.4648 119.109C64.7804 119.109 65.035 119.2 65.2244 119.385V119.382Z" fill="white"/>
<path d="M66.7269 121.503C66.5201 121.395 66.359 121.242 66.2437 121.047C66.1283 120.851 66.0696 120.632 66.0696 120.384C66.0696 120.136 66.1283 119.917 66.2437 119.724C66.359 119.53 66.5201 119.378 66.7247 119.269C66.9293 119.161 67.1643 119.107 67.4255 119.107C67.6736 119.107 67.8891 119.156 68.0763 119.256C68.2613 119.356 68.4027 119.5 68.4963 119.687L68.0458 119.95C67.974 119.834 67.8847 119.748 67.7759 119.689C67.6671 119.63 67.5496 119.602 67.4211 119.602C67.2013 119.602 67.0207 119.674 66.877 119.815C66.7334 119.956 66.6616 120.147 66.6616 120.384C66.6616 120.621 66.7334 120.812 66.8749 120.953C67.0163 121.095 67.1991 121.166 67.4211 121.166C67.5496 121.166 67.6671 121.138 67.7759 121.079C67.8847 121.023 67.974 120.936 68.0458 120.819L68.4963 121.082C68.3984 121.268 68.2569 121.414 68.0719 121.514C67.8847 121.616 67.6714 121.666 67.4277 121.666C67.1687 121.666 66.9358 121.612 66.729 121.503H66.7269Z" fill="white"/>
<path d="M71.3135 120.571H69.3481C69.383 120.756 69.4722 120.901 69.618 121.01C69.7638 121.119 69.9445 121.171 70.16 121.171C70.4342 121.171 70.6627 121.079 70.839 120.899L71.1524 121.26C71.0392 121.394 70.8978 121.494 70.7258 121.564C70.5539 121.634 70.3602 121.666 70.1447 121.666C69.8705 121.666 69.6267 121.612 69.4178 121.503C69.2088 121.395 69.0456 121.242 68.9324 121.047C68.8193 120.851 68.7605 120.632 68.7605 120.384C68.7605 120.136 68.8149 119.921 68.9281 119.726C69.0391 119.53 69.1936 119.378 69.3895 119.269C69.5875 119.161 69.8095 119.107 70.0555 119.107C70.3014 119.107 70.5169 119.161 70.7106 119.267C70.9021 119.376 71.0523 119.526 71.1611 119.721C71.2699 119.917 71.3222 120.143 71.3222 120.397C71.3222 120.438 71.32 120.495 71.3135 120.571ZM69.581 119.741C69.4504 119.852 69.3721 120 69.3438 120.184H70.765C70.7389 120.004 70.6627 119.856 70.5343 119.743C70.4059 119.63 70.247 119.574 70.0555 119.574C69.864 119.574 69.7094 119.63 69.5788 119.741H69.581Z" fill="white"/>
<path d="M74.3354 118.159V121.633H73.7717V121.31C73.6738 121.429 73.5562 121.516 73.4126 121.577C73.2711 121.636 73.1122 121.666 72.9403 121.666C72.6987 121.666 72.4832 121.614 72.2917 121.507C72.1002 121.401 71.9478 121.251 71.839 121.055C71.7302 120.86 71.6758 120.636 71.6758 120.384C71.6758 120.132 71.7302 119.908 71.839 119.715C71.9478 119.521 72.1002 119.371 72.2917 119.265C72.4832 119.159 72.7009 119.106 72.9403 119.106C73.1057 119.106 73.258 119.135 73.3952 119.191C73.5323 119.248 73.6498 119.332 73.7478 119.443V118.159H74.3332H74.3354ZM73.393 121.068C73.5062 121.005 73.5954 120.912 73.6607 120.795C73.726 120.677 73.7586 120.538 73.7586 120.382C73.7586 120.225 73.726 120.089 73.6607 119.969C73.5954 119.849 73.5062 119.758 73.393 119.695C73.2798 119.632 73.1536 119.6 73.0121 119.6C72.8706 119.6 72.7444 119.632 72.6312 119.695C72.5181 119.758 72.4288 119.849 72.3635 119.969C72.2982 120.089 72.2656 120.225 72.2656 120.382C72.2656 120.538 72.2982 120.675 72.3635 120.795C72.4288 120.914 72.5181 121.005 72.6312 121.068C72.7444 121.131 72.8706 121.164 73.0121 121.164C73.1536 121.164 73.2798 121.131 73.393 121.068Z" fill="white"/>
<path d="M138.929 118.865V119.862H140.514V120.377H138.929V121.633H138.32V118.354H140.716V118.865H138.929Z" fill="white"/>
<path d="M141.228 118.619C141.156 118.552 141.121 118.469 141.121 118.369C141.121 118.269 141.156 118.187 141.228 118.119C141.3 118.052 141.389 118.02 141.496 118.02C141.602 118.02 141.691 118.052 141.763 118.115C141.835 118.178 141.872 118.259 141.872 118.356C141.872 118.458 141.837 118.545 141.765 118.617C141.696 118.687 141.604 118.721 141.496 118.721C141.387 118.721 141.3 118.689 141.228 118.621V118.619ZM141.2 119.132H141.785V121.633H141.2V119.132Z" fill="white"/>
<path d="M142.563 118.159H143.149V121.633H142.563V118.159Z" fill="white"/>
<path d="M145.545 121.498C145.475 121.555 145.392 121.596 145.294 121.624C145.196 121.653 145.092 121.666 144.983 121.666C144.709 121.666 144.496 121.594 144.345 121.451C144.195 121.307 144.121 121.099 144.121 120.823V119.619H143.708V119.15H144.121V118.578H144.707V119.15H145.377V119.619H144.707V120.807C144.707 120.929 144.737 121.023 144.796 121.086C144.855 121.149 144.942 121.181 145.055 121.181C145.186 121.181 145.297 121.146 145.384 121.079L145.549 121.496L145.545 121.498Z" fill="white"/>
<path d="M148.282 120.571H146.317C146.352 120.755 146.441 120.901 146.587 121.009C146.733 121.118 146.913 121.17 147.129 121.17C147.403 121.17 147.631 121.079 147.81 120.899L148.123 121.259C148.01 121.394 147.869 121.494 147.697 121.564C147.525 121.633 147.331 121.666 147.116 121.666C146.841 121.666 146.598 121.611 146.389 121.503C146.18 121.394 146.017 121.242 145.903 121.046C145.79 120.851 145.731 120.631 145.731 120.384C145.731 120.136 145.786 119.921 145.899 119.725C146.01 119.53 146.165 119.378 146.36 119.269C146.556 119.16 146.78 119.106 147.026 119.106C147.272 119.106 147.488 119.16 147.682 119.267C147.873 119.375 148.023 119.525 148.132 119.721C148.241 119.917 148.293 120.142 148.293 120.397C148.293 120.438 148.289 120.494 148.284 120.571H148.282ZM146.55 119.741C146.419 119.851 146.341 119.999 146.313 120.184H147.734C147.708 120.003 147.631 119.856 147.505 119.743C147.377 119.63 147.218 119.573 147.026 119.573C146.835 119.573 146.68 119.63 146.55 119.741Z" fill="white"/>
<path d="M150.309 119.104V119.66C150.259 119.651 150.213 119.647 150.174 119.647C149.946 119.647 149.767 119.712 149.639 119.847C149.51 119.979 149.447 120.171 149.447 120.42V121.633H148.862V119.132H149.421V119.497C149.591 119.234 149.887 119.104 150.311 119.104H150.309Z" fill="white"/>
<path d="M162.507 118.356H163.116V121.12H164.833V121.635H162.507V118.356Z" fill="white"/>
<path d="M165.291 118.619C165.219 118.552 165.182 118.469 165.182 118.369C165.182 118.269 165.219 118.187 165.291 118.119C165.363 118.052 165.452 118.02 165.558 118.02C165.665 118.02 165.754 118.052 165.826 118.115C165.898 118.178 165.935 118.259 165.935 118.356C165.935 118.458 165.9 118.545 165.828 118.617C165.759 118.687 165.667 118.721 165.558 118.721C165.45 118.721 165.363 118.689 165.291 118.621V118.619ZM165.262 119.132H165.848V121.633H165.262V119.132Z" fill="white"/>
<path d="M166.793 121.585C166.6 121.533 166.445 121.465 166.33 121.383L166.554 120.937C166.667 121.011 166.802 121.072 166.959 121.118C167.115 121.163 167.272 121.185 167.424 121.185C167.775 121.185 167.949 121.094 167.949 120.909C167.949 120.822 167.905 120.761 167.816 120.727C167.727 120.692 167.583 120.659 167.387 120.629C167.181 120.598 167.013 120.562 166.883 120.52C166.752 120.479 166.641 120.409 166.545 120.307C166.449 120.205 166.402 120.064 166.402 119.884C166.402 119.647 166.502 119.456 166.7 119.314C166.898 119.173 167.165 119.101 167.505 119.101C167.677 119.101 167.849 119.121 168.021 119.16C168.193 119.199 168.334 119.251 168.443 119.317L168.219 119.762C168.006 119.638 167.766 119.575 167.501 119.575C167.329 119.575 167.198 119.601 167.109 119.653C167.02 119.705 166.976 119.773 166.976 119.858C166.976 119.951 167.024 120.018 167.12 120.057C167.216 120.097 167.364 120.133 167.564 120.168C167.764 120.199 167.927 120.236 168.056 120.277C168.184 120.318 168.295 120.386 168.386 120.483C168.478 120.581 168.526 120.718 168.526 120.896C168.526 121.131 168.423 121.318 168.221 121.459C168.019 121.6 167.74 121.67 167.392 121.67C167.189 121.67 166.989 121.644 166.795 121.589L166.793 121.585Z" fill="white"/>
<path d="M170.541 121.498C170.472 121.555 170.389 121.596 170.291 121.624C170.193 121.653 170.089 121.666 169.98 121.666C169.706 121.666 169.492 121.594 169.342 121.451C169.192 121.307 169.118 121.099 169.118 120.823V119.619H168.704V119.15H169.118V118.578H169.703V119.15H170.374V119.619H169.703V120.807C169.703 120.929 169.734 121.023 169.793 121.086C169.851 121.149 169.938 121.181 170.052 121.181C170.182 121.181 170.293 121.146 170.38 121.079L170.543 121.496L170.541 121.498Z" fill="white"/>
<path d="M143.338 114.763C143.155 114.763 143.009 114.615 143.009 114.435V111.276L139.958 107.925C139.616 107.547 139.644 106.965 140.021 106.623C140.19 106.469 140.41 106.384 140.641 106.384H147.682C148.191 106.384 148.605 106.797 148.605 107.308C148.605 107.536 148.52 107.758 148.365 107.927L145.314 111.278V113.122C145.314 113.222 145.268 113.316 145.19 113.379L143.544 114.693C143.486 114.741 143.414 114.765 143.338 114.765V114.763ZM140.641 107.041C140.495 107.041 140.375 107.16 140.378 107.306C140.378 107.371 140.402 107.434 140.445 107.482L143.581 110.932C143.636 110.991 143.666 111.067 143.666 111.147V113.75L144.654 112.955V111.147C144.654 111.065 144.685 110.987 144.739 110.926L147.875 107.475C147.969 107.364 147.956 107.197 147.845 107.102C147.799 107.062 147.741 107.041 147.68 107.039H140.639L140.641 107.041Z" fill="white"/>
<path d="M61.1681 111.569C61.2856 111.569 61.4031 111.517 61.4793 111.417L61.6491 111.195C61.9037 112.71 62.9658 114.003 64.4741 114.526C64.9377 114.687 65.4143 114.763 65.8844 114.763C67.2904 114.763 68.6441 114.07 69.4559 112.851C69.5756 112.671 69.5256 112.427 69.3449 112.308C69.1643 112.188 68.9205 112.238 68.8008 112.419C67.9172 113.748 66.2435 114.311 64.7331 113.785C63.4773 113.351 62.6023 112.26 62.4152 110.993L62.7503 111.252C62.9223 111.382 63.1682 111.352 63.301 111.18C63.4337 111.008 63.4011 110.763 63.2292 110.63C63.2292 110.63 62.2998 109.918 62.2976 109.916C62.1018 109.766 61.8254 109.681 61.6491 109.911L60.8568 110.939C60.7241 111.111 60.7567 111.356 60.9287 111.489C61.0005 111.543 61.0832 111.569 61.1681 111.569Z" fill="white"/>
<path d="M62.4153 108.649C62.5959 108.768 62.8397 108.718 62.9594 108.538C63.843 107.208 65.5167 106.645 67.0271 107.171C68.2829 107.606 69.1579 108.696 69.345 109.963L69.0099 109.705C68.8379 109.572 68.592 109.605 68.4592 109.776C68.3265 109.948 68.3591 110.194 68.5311 110.326C68.5311 110.326 69.4604 111.039 69.4626 111.041C69.6606 111.193 69.9327 111.278 70.1111 111.045L70.9034 110.018C71.0361 109.846 71.0035 109.6 70.8315 109.468C70.6596 109.335 70.4137 109.368 70.2809 109.539L70.1111 109.761C69.8565 108.247 68.7944 106.954 67.2861 106.43C65.434 105.789 63.386 106.476 62.3043 108.105C62.1846 108.286 62.2346 108.529 62.4153 108.649Z" fill="white"/>
<path d="M36.0355 114.763C36.4153 114.763 36.7232 114.456 36.7232 114.077C36.7232 113.697 36.4153 113.39 36.0355 113.39C35.6556 113.39 35.3477 113.697 35.3477 114.077C35.3477 114.456 35.6556 114.763 36.0355 114.763Z" fill="white"/>
<path d="M41.2784 108.277C39.9073 106.808 38.053 106 36.0528 106C34.0527 106 32.1984 106.808 30.8272 108.277C30.6705 108.444 30.6792 108.71 30.849 108.866C31.0166 109.022 31.2821 109.014 31.4388 108.844C32.6489 107.547 34.2877 106.832 36.055 106.832C37.8201 106.832 39.4589 107.547 40.6712 108.844C40.7539 108.931 40.8649 108.977 40.9759 108.977C41.0782 108.977 41.1805 108.94 41.261 108.866C41.4286 108.71 41.4395 108.447 41.2828 108.277H41.2784Z" fill="white"/>
<path d="M39.7477 109.996C38.7356 108.977 37.4232 108.417 36.0543 108.417C34.6853 108.417 33.3729 108.977 32.3608 109.996C32.1976 110.159 32.1998 110.422 32.363 110.585C32.5263 110.748 32.7896 110.746 32.9528 110.583C33.8082 109.722 34.9094 109.249 36.0543 109.249C37.1991 109.249 38.3025 109.722 39.1557 110.583C39.2362 110.665 39.345 110.707 39.4517 110.707C39.5583 110.707 39.665 110.665 39.7455 110.585C39.9087 110.422 39.9109 110.159 39.7477 109.996Z" fill="white"/>
<path d="M38.0756 111.721C37.5337 111.184 36.7545 110.852 36.0472 110.852H36.0167C35.3072 110.852 34.5302 111.184 33.9883 111.721C33.825 111.882 33.8229 112.147 33.9861 112.31C34.0666 112.392 34.1754 112.434 34.2821 112.434C34.3887 112.434 34.4932 112.394 34.5759 112.314C34.9611 111.932 35.5292 111.686 36.0189 111.686H36.0493C36.539 111.686 37.1049 111.934 37.4923 112.314C37.6556 112.475 37.9189 112.475 38.0821 112.312C38.2432 112.149 38.2432 111.886 38.08 111.723L38.0756 111.721Z" fill="white"/>
<path d="M167.547 113.227C167.46 113.14 167.414 113.027 167.414 112.905C167.414 112.783 167.462 112.668 167.547 112.583C167.632 112.499 167.754 112.451 167.869 112.451C167.984 112.451 168.104 112.494 168.191 112.583L169.275 113.666L171.767 111.178C171.939 111.006 172.239 111.006 172.413 111.178C172.501 111.265 172.546 111.378 172.546 111.499C172.546 111.621 172.498 111.736 172.413 111.821L169.599 114.63C169.421 114.808 169.131 114.808 168.953 114.63L167.545 113.224L167.547 113.227ZM168.354 111.234C168.607 111.234 168.811 111.03 168.811 110.778C168.811 110.526 168.607 110.322 168.354 110.322H160.615C160.363 110.322 160.158 110.526 160.158 110.778C160.158 111.03 160.363 111.234 160.615 111.234H168.354ZM168.354 107.723C168.607 107.723 168.811 107.519 168.811 107.267C168.811 107.015 168.607 106.81 168.354 106.81H160.615C160.363 106.81 160.158 107.015 160.158 107.267C160.158 107.519 160.363 107.723 160.615 107.723H168.354ZM165.54 113.835H160.615C160.363 113.835 160.158 114.039 160.158 114.291C160.158 114.543 160.363 114.748 160.615 114.748H165.54C165.793 114.748 165.997 114.543 165.997 114.291C165.997 114.039 165.793 113.835 165.54 113.835Z" fill="white"/>
<defs>
<filter id="filter0_d_136_678" x="1.26977" y="0.205616" width="192.46" height="148.46" filterUnits="userSpaceOnUse" color-interpolation-filters="sRGB">
<feFlood flood-opacity="0" result="BackgroundImageFix"/>
<feColorMatrix in="SourceAlpha" type="matrix" values="0 0 0 0 0 0 0 0 0 0 0 0 0 0 0 0 0 0 127 0" result="hardAlpha"/>
<feOffset dy="2.93585"/>
<feGaussianBlur stdDeviation="5.86512"/>
<feColorMatrix type="matrix" values="0 0 0 0 0.513726 0 0 0 0 0.568627 0 0 0 0 0.592157 0 0 0 0.3 0"/>
<feBlend mode="normal" in2="BackgroundImageFix" result="effect1_dropShadow_136_678"/>
<feBlend mode="normal" in="SourceGraphic" in2="effect1_dropShadow_136_678" result="shape"/>
</filter>
<filter id="filter1_d_136_678" x="0.637834" y="83.506" width="193.94" height="66.4033" filterUnits="userSpaceOnUse" color-interpolation-filters="sRGB">
<feFlood flood-opacity="0" result="BackgroundImageFix"/>
<feColorMatrix in="SourceAlpha" type="matrix" values="0 0 0 0 0 0 0 0 0 0 0 0 0 0 0 0 0 0 127 0" result="hardAlpha"/>
<feOffset dy="3.08725"/>
<feGaussianBlur stdDeviation="6.18108"/>
<feColorMatrix type="matrix" values="0 0 0 0 0.513726 0 0 0 0 0.568627 0 0 0 0 0.592157 0 0 0 0.3 0"/>
<feBlend mode="normal" in2="BackgroundImageFix" result="effect1_dropShadow_136_678"/>
<feBlend mode="normal" in="SourceGraphic" in2="effect1_dropShadow_136_678" result="shape"/>
</filter>
</defs>
</svg>
