<svg width="212" height="185" viewBox="0 0 212 185" fill="none" xmlns="http://www.w3.org/2000/svg">
<g filter="url(#filter0_ddddd_7_15199)">
<rect x="23" y="5" width="190" height="104.777" rx="11.1502" fill="white" fill-opacity="0.35"/>
</g>
<g filter="url(#filter1_ddddd_7_15199)">
<rect x="29.6893" y="10.3521" width="176.718" height="93.7087" rx="6.69014" fill="white"/>
</g>
<rect x="42.179" y="61.6427" width="89.2019" height="8.02817" rx="4.01408" fill="#F1F1F1"/>
<g filter="url(#filter2_ddddd_7_15199)">
<rect x="149.666" y="61.1968" width="43.7089" height="35.6808" rx="4.46009" fill="white"/>
<rect x="154.126" y="92.4175" width="13.3803" height="4.46009" rx="2.23005" transform="rotate(-90 154.126 92.4175)" fill="#007AFF"/>
<rect x="161.708" y="92.4175" width="18.2864" height="4.46009" rx="2.23005" transform="rotate(-90 161.708 92.4175)" fill="#F1F1F1"/>
<rect x="169.291" y="92.4175" width="14.7183" height="4.46009" rx="2.23005" transform="rotate(-90 169.291 92.4175)" fill="#007AFF"/>
<rect x="176.873" y="92.4175" width="26.7606" height="4.46009" rx="2.23005" transform="rotate(-90 176.873 92.4175)" fill="#007AFF"/>
<rect x="184.455" y="92.4175" width="8.02817" height="4.46009" rx="2.23005" transform="rotate(-90 184.455 92.4175)" fill="#F1F1F1"/>
</g>
<rect x="187.133" y="24.1779" width="4.46009" height="11.5962" rx="2.23005" fill="#F1F7FF"/>
<line x1="42.179" y1="52.0536" x2="192.93" y2="52.0536" stroke="#E3E3E3" stroke-width="0.446009"/>
<rect x="42.179" y="73.6851" width="89.2019" height="8.47418" rx="4.23709" fill="#F1F1F1"/>
<rect x="42.179" y="86.1734" width="55.7512" height="8.02817" rx="4.01408" fill="#F1F1F1"/>
<path d="M72.684 31.7095C72.3462 31.7095 72.0346 31.6477 71.7492 31.524C71.4685 31.3955 71.2377 31.2147 71.057 30.9816L71.6992 30.2109C71.9704 30.5773 72.2796 30.7604 72.6269 30.7604C73.0979 30.7604 73.3334 30.4845 73.3334 29.9326V27.5563H71.5779V26.6286H74.4823V29.8684C74.4823 30.4821 74.3301 30.9436 74.0256 31.2528C73.7211 31.5573 73.2739 31.7095 72.684 31.7095ZM79.3065 29.7185C79.3065 29.7328 79.2993 29.8327 79.2851 30.0183H76.3806C76.433 30.2561 76.5567 30.444 76.7517 30.582C76.9468 30.72 77.1894 30.789 77.4796 30.789C77.6794 30.789 77.8554 30.7604 78.0077 30.7033C78.1647 30.6415 78.3098 30.5463 78.443 30.4179L79.0353 31.0601C78.6737 31.474 78.1457 31.681 77.4511 31.681C77.0181 31.681 76.6352 31.5977 76.3021 31.4312C75.9691 31.2599 75.7122 31.0244 75.5314 30.7247C75.3507 30.425 75.2603 30.0849 75.2603 29.7043C75.2603 29.3284 75.3483 28.9906 75.5243 28.6909C75.7051 28.3865 75.9501 28.151 76.2593 27.9844C76.5733 27.8132 76.923 27.7275 77.3083 27.7275C77.6842 27.7275 78.0243 27.8084 78.3288 27.9702C78.6333 28.1319 78.8712 28.365 79.0424 28.6695C79.2185 28.9692 79.3065 29.3189 79.3065 29.7185ZM77.3155 28.5696C77.0633 28.5696 76.8516 28.641 76.6804 28.7837C76.5091 28.9264 76.4044 29.1215 76.3664 29.3689H78.2575C78.2194 29.1262 78.1147 28.9336 77.9435 28.7908C77.7722 28.6434 77.5629 28.5696 77.3155 28.5696ZM82.3811 27.7275C82.8569 27.7275 83.2399 27.8703 83.5301 28.1557C83.825 28.4412 83.9725 28.8646 83.9725 29.426V31.6239H82.8593V29.5972C82.8593 29.2927 82.7927 29.0668 82.6595 28.9193C82.5262 28.767 82.3336 28.6909 82.0814 28.6909C81.8007 28.6909 81.5771 28.7789 81.4106 28.955C81.2441 29.1262 81.1609 29.3831 81.1609 29.7257V31.6239H80.0476V27.7846H81.1109V28.2342C81.2584 28.0725 81.4416 27.9488 81.6604 27.8631C81.8792 27.7727 82.1195 27.7275 82.3811 27.7275ZM86.2732 31.681C85.9545 31.681 85.6429 31.6429 85.3384 31.5668C85.0339 31.4859 84.7913 31.386 84.6105 31.2671L84.9816 30.4678C85.1529 30.5773 85.3598 30.6676 85.6024 30.739C85.8451 30.8056 86.0829 30.8389 86.3161 30.8389C86.787 30.8389 87.0225 30.7224 87.0225 30.4892C87.0225 30.3798 86.9583 30.3013 86.8299 30.2537C86.7014 30.2062 86.504 30.1657 86.2376 30.1324C85.9236 30.0849 85.6643 30.0301 85.4597 29.9683C85.2552 29.9065 85.0768 29.797 84.9245 29.64C84.777 29.483 84.7033 29.2594 84.7033 28.9692C84.7033 28.7266 84.7723 28.5125 84.9102 28.327C85.053 28.1367 85.2575 27.9892 85.5239 27.8845C85.7951 27.7799 86.1139 27.7275 86.4802 27.7275C86.7514 27.7275 87.0202 27.7585 87.2866 27.8203C87.5578 27.8774 87.7814 27.9583 87.9574 28.0629L87.5863 28.8551C87.2485 28.6648 86.8798 28.5696 86.4802 28.5696C86.2423 28.5696 86.0639 28.6029 85.945 28.6695C85.826 28.7361 85.7666 28.8218 85.7666 28.9264C85.7666 29.0454 85.8308 29.1286 85.9593 29.1762C86.0877 29.2238 86.2923 29.269 86.573 29.3118C86.887 29.3641 87.1439 29.4212 87.3437 29.483C87.5435 29.5401 87.7171 29.6472 87.8646 29.8042C88.0121 29.9612 88.0858 30.18 88.0858 30.4607C88.0858 30.6986 88.0145 30.9103 87.8717 31.0958C87.729 31.2814 87.5197 31.4265 87.2438 31.5311C86.9726 31.631 86.6491 31.681 86.2732 31.681ZM90.5995 31.681C90.1952 31.681 89.8312 31.5977 89.5077 31.4312C89.189 31.2599 88.9392 31.0244 88.7584 30.7247C88.5776 30.425 88.4872 30.0849 88.4872 29.7043C88.4872 29.3237 88.5776 28.9835 88.7584 28.6838C88.9392 28.3841 89.189 28.151 89.5077 27.9844C89.8312 27.8132 90.1952 27.7275 90.5995 27.7275C91.0039 27.7275 91.3655 27.8132 91.6842 27.9844C92.003 28.151 92.2527 28.3841 92.4335 28.6838C92.6143 28.9835 92.7047 29.3237 92.7047 29.7043C92.7047 30.0849 92.6143 30.425 92.4335 30.7247C92.2527 31.0244 92.003 31.2599 91.6842 31.4312C91.3655 31.5977 91.0039 31.681 90.5995 31.681ZM90.5995 30.7675C90.885 30.7675 91.1181 30.6724 91.2989 30.4821C91.4844 30.287 91.5772 30.0278 91.5772 29.7043C91.5772 29.3808 91.4844 29.1239 91.2989 28.9336C91.1181 28.7385 90.885 28.641 90.5995 28.641C90.3141 28.641 90.0786 28.7385 89.8931 28.9336C89.7075 29.1239 89.6147 29.3808 89.6147 29.7043C89.6147 30.0278 89.7075 30.287 89.8931 30.4821C90.0786 30.6724 90.3141 30.7675 90.5995 30.7675ZM95.7823 27.7275C96.2581 27.7275 96.6411 27.8703 96.9313 28.1557C97.2262 28.4412 97.3737 28.8646 97.3737 29.426V31.6239H96.2605V29.5972C96.2605 29.2927 96.1939 29.0668 96.0606 28.9193C95.9274 28.767 95.7348 28.6909 95.4826 28.6909C95.2019 28.6909 94.9783 28.7789 94.8118 28.955C94.6453 29.1262 94.5621 29.3831 94.5621 29.7257V31.6239H93.4488V27.7846H94.5121V28.2342C94.6596 28.0725 94.8427 27.9488 95.0616 27.8631C95.2804 27.7727 95.5207 27.7275 95.7823 27.7275ZM102.124 31.7095C101.729 31.7095 101.346 31.6572 100.975 31.5525C100.608 31.4431 100.313 31.3028 100.09 31.1315L100.482 30.2609C100.696 30.4179 100.951 30.5439 101.246 30.6391C101.541 30.7342 101.836 30.7818 102.131 30.7818C102.459 30.7818 102.702 30.7342 102.859 30.6391C103.016 30.5392 103.094 30.4084 103.094 30.2466C103.094 30.1277 103.047 30.0301 102.951 29.954C102.861 29.8732 102.742 29.8089 102.595 29.7614C102.452 29.7138 102.257 29.6614 102.009 29.6044C101.629 29.514 101.317 29.4236 101.075 29.3332C100.832 29.2428 100.623 29.0977 100.447 28.8979C100.275 28.6981 100.19 28.4316 100.19 28.0986C100.19 27.8084 100.268 27.5468 100.425 27.3137C100.582 27.0758 100.818 26.8879 101.132 26.7499C101.45 26.6119 101.838 26.5429 102.295 26.5429C102.614 26.5429 102.925 26.581 103.23 26.6571C103.534 26.7332 103.801 26.8427 104.029 26.9854L103.672 27.8631C103.211 27.6015 102.749 27.4706 102.288 27.4706C101.964 27.4706 101.724 27.523 101.567 27.6276C101.415 27.7323 101.339 27.8703 101.339 28.0415C101.339 28.2128 101.427 28.3413 101.603 28.4269C101.783 28.5078 102.057 28.5886 102.423 28.6695C102.804 28.7599 103.116 28.8503 103.358 28.9407C103.601 29.0311 103.808 29.1738 103.979 29.3689C104.155 29.5639 104.243 29.828 104.243 30.161C104.243 30.4464 104.162 30.7081 104 30.946C103.843 31.1791 103.606 31.3646 103.287 31.5026C102.968 31.6405 102.58 31.7095 102.124 31.7095ZM111.05 27.7846L109.659 31.6239H108.588L107.725 29.2404L106.833 31.6239H105.763L104.378 27.7846H105.427L106.333 30.3822L107.275 27.7846H108.217L109.131 30.3822L110.066 27.7846H111.05ZM112.991 27.7275C113.586 27.7275 114.042 27.8703 114.361 28.1557C114.68 28.4364 114.839 28.8622 114.839 29.4331V31.6239H113.797V31.1458C113.588 31.5026 113.198 31.681 112.627 31.681C112.332 31.681 112.075 31.631 111.856 31.5311C111.642 31.4312 111.478 31.2932 111.364 31.1172C111.25 30.9412 111.193 30.7414 111.193 30.5178C111.193 30.161 111.326 29.8803 111.592 29.6757C111.864 29.4711 112.28 29.3689 112.841 29.3689H113.726C113.726 29.1262 113.652 28.9407 113.505 28.8122C113.357 28.679 113.136 28.6124 112.841 28.6124C112.637 28.6124 112.434 28.6457 112.235 28.7123C112.04 28.7742 111.873 28.8598 111.735 28.9692L111.335 28.1914C111.545 28.0439 111.795 27.9297 112.085 27.8489C112.38 27.768 112.682 27.7275 112.991 27.7275ZM112.905 30.9317C113.096 30.9317 113.265 30.8889 113.412 30.8032C113.56 30.7128 113.664 30.582 113.726 30.4107V30.0183H112.963C112.506 30.0183 112.277 30.1681 112.277 30.4678C112.277 30.6106 112.332 30.7247 112.442 30.8104C112.556 30.8912 112.71 30.9317 112.905 30.9317ZM116.91 28.2913C117.043 28.1058 117.222 27.9654 117.445 27.8703C117.674 27.7751 117.935 27.7275 118.23 27.7275V28.7552C118.107 28.7456 118.023 28.7409 117.981 28.7409C117.662 28.7409 117.412 28.8313 117.231 29.0121C117.05 29.1881 116.96 29.4545 116.96 29.8113V31.6239H115.847V27.7846H116.91V28.2913ZM121.501 31.4383C121.391 31.5192 121.256 31.5811 121.094 31.6239C120.937 31.6619 120.771 31.681 120.595 31.681C120.138 31.681 119.783 31.5644 119.531 31.3313C119.284 31.0982 119.16 30.7557 119.16 30.3037V28.7266H118.568V27.8703H119.16V26.9354H120.273V27.8703H121.23V28.7266H120.273V30.2894C120.273 30.4512 120.314 30.5773 120.395 30.6676C120.48 30.7533 120.599 30.7961 120.752 30.7961C120.928 30.7961 121.078 30.7485 121.201 30.6534L121.501 31.4383Z" fill="#202020"/>
<path d="M73.6545 35.3845L72.5484 37.8822H72.288L71.1818 35.3845H71.4673L72.4235 37.5539L73.3869 35.3845H73.6545ZM73.953 36.0054H74.2064V37.8822H73.953V36.0054ZM74.0815 35.5951C74.0292 35.5951 73.9852 35.5772 73.9495 35.5415C73.9138 35.5059 73.896 35.463 73.896 35.4131C73.896 35.3655 73.9138 35.3239 73.9495 35.2882C73.9852 35.2525 74.0292 35.2347 74.0815 35.2347C74.1338 35.2347 74.1778 35.2525 74.2135 35.2882C74.2492 35.3215 74.267 35.362 74.267 35.4095C74.267 35.4619 74.2492 35.5059 74.2135 35.5415C74.1778 35.5772 74.1338 35.5951 74.0815 35.5951ZM76.5454 37.0223H74.9755C74.9898 37.2174 75.0647 37.3755 75.2003 37.4968C75.3359 37.6158 75.5071 37.6753 75.7141 37.6753C75.8306 37.6753 75.9377 37.655 76.0352 37.6146C76.1327 37.5718 76.2172 37.5099 76.2885 37.4291L76.4313 37.5932C76.348 37.6931 76.2433 37.7692 76.1173 37.8215C75.9936 37.8739 75.8568 37.9 75.7069 37.9C75.5143 37.9 75.343 37.8596 75.1931 37.7787C75.0457 37.6955 74.9303 37.5813 74.847 37.4362C74.7638 37.2911 74.7222 37.127 74.7222 36.9438C74.7222 36.7606 74.7614 36.5965 74.8399 36.4514C74.9208 36.3063 75.0302 36.1933 75.1682 36.1124C75.3085 36.0316 75.4655 35.9911 75.6392 35.9911C75.8128 35.9911 75.9686 36.0316 76.1066 36.1124C76.2445 36.1933 76.3528 36.3063 76.4313 36.4514C76.5098 36.5941 76.549 36.7583 76.549 36.9438L76.5454 37.0223ZM75.6392 36.2088C75.4584 36.2088 75.3061 36.2671 75.1824 36.3836C75.0611 36.4978 74.9921 36.6476 74.9755 36.8332H76.3064C76.2897 36.6476 76.2196 36.4978 76.0959 36.3836C75.9746 36.2671 75.8223 36.2088 75.6392 36.2088ZM79.7844 36.0054L79.0743 37.8822H78.8353L78.243 36.3444L77.6507 37.8822H77.4116L76.7051 36.0054H76.9477L77.5365 37.6003L78.1395 36.0054H78.3571L78.9566 37.6003L79.5524 36.0054H79.7844ZM82.6767 36.0054L81.7383 38.107C81.6622 38.283 81.5742 38.4079 81.4743 38.4816C81.3744 38.5554 81.2543 38.5922 81.1139 38.5922C81.0235 38.5922 80.9391 38.578 80.8606 38.5494C80.7821 38.5209 80.7143 38.4781 80.6572 38.421L80.775 38.2319C80.8701 38.327 80.9843 38.3746 81.1175 38.3746C81.2031 38.3746 81.2757 38.3508 81.3351 38.3032C81.397 38.2557 81.4541 38.1748 81.5064 38.0606L81.5885 37.8786L80.75 36.0054H81.014L81.7205 37.6003L82.427 36.0054H82.6767ZM83.7484 37.9C83.5676 37.9 83.4047 37.8596 83.2596 37.7787C83.1145 37.6955 83.0003 37.5813 82.917 37.4362C82.8338 37.2911 82.7921 37.127 82.7921 36.9438C82.7921 36.7606 82.8338 36.5965 82.917 36.4514C83.0003 36.3063 83.1145 36.1933 83.2596 36.1124C83.4047 36.0316 83.5676 35.9911 83.7484 35.9911C83.9292 35.9911 84.0921 36.0316 84.2372 36.1124C84.3823 36.1933 84.4953 36.3063 84.5762 36.4514C84.6594 36.5965 84.7011 36.7606 84.7011 36.9438C84.7011 37.127 84.6594 37.2911 84.5762 37.4362C84.4953 37.5813 84.3823 37.6955 84.2372 37.7787C84.0921 37.8596 83.9292 37.9 83.7484 37.9ZM83.7484 37.6753C83.8816 37.6753 84.0005 37.6455 84.1052 37.5861C84.2122 37.5242 84.2955 37.4374 84.355 37.3256C84.4144 37.2138 84.4442 37.0865 84.4442 36.9438C84.4442 36.8011 84.4144 36.6738 84.355 36.562C84.2955 36.4502 84.2122 36.3646 84.1052 36.3051C84.0005 36.2433 83.8816 36.2123 83.7484 36.2123C83.6152 36.2123 83.4951 36.2433 83.388 36.3051C83.2833 36.3646 83.2001 36.4502 83.1382 36.562C83.0788 36.6738 83.049 36.8011 83.049 36.9438C83.049 37.0865 83.0788 37.2138 83.1382 37.3256C83.2001 37.4374 83.2833 37.5242 83.388 37.5861C83.4951 37.6455 83.6152 37.6753 83.7484 37.6753ZM86.9095 36.0054V37.8822H86.6669V37.5397C86.6003 37.6538 86.5087 37.743 86.3922 37.8073C86.2756 37.8691 86.1424 37.9 85.9925 37.9C85.7475 37.9 85.5537 37.8322 85.4109 37.6967C85.2706 37.5587 85.2004 37.3577 85.2004 37.0937V36.0054H85.4538V37.0687C85.4538 37.2661 85.5025 37.416 85.6001 37.5183C85.6976 37.6205 85.8367 37.6717 86.0175 37.6717C86.2149 37.6717 86.3708 37.6122 86.4849 37.4933C86.5991 37.372 86.6562 37.2043 86.6562 36.9902V36.0054H86.9095ZM87.8617 36.3729C87.9211 36.2468 88.0092 36.1517 88.1257 36.0875C88.2447 36.0232 88.3909 35.9911 88.5646 35.9911V36.2373L88.5039 36.2338C88.3065 36.2338 88.1519 36.2944 88.0401 36.4157C87.9283 36.537 87.8724 36.7071 87.8724 36.926V37.8822H87.6191V36.0054H87.8617V36.3729ZM90.7521 37.9C90.5713 37.9 90.4084 37.8596 90.2633 37.7787C90.1182 37.6955 90.004 37.5813 89.9208 37.4362C89.8375 37.2911 89.7959 37.127 89.7959 36.9438C89.7959 36.7606 89.8375 36.5965 89.9208 36.4514C90.004 36.3063 90.1182 36.1933 90.2633 36.1124C90.4084 36.0316 90.5713 35.9911 90.7521 35.9911C90.9329 35.9911 91.0959 36.0316 91.241 36.1124C91.3861 36.1933 91.499 36.3063 91.5799 36.4514C91.6632 36.5965 91.7048 36.7606 91.7048 36.9438C91.7048 37.127 91.6632 37.2911 91.5799 37.4362C91.499 37.5813 91.3861 37.6955 91.241 37.7787C91.0959 37.8596 90.9329 37.9 90.7521 37.9ZM90.7521 37.6753C90.8853 37.6753 91.0043 37.6455 91.1089 37.5861C91.216 37.5242 91.2992 37.4374 91.3587 37.3256C91.4182 37.2138 91.4479 37.0865 91.4479 36.9438C91.4479 36.8011 91.4182 36.6738 91.3587 36.562C91.2992 36.4502 91.216 36.3646 91.1089 36.3051C91.0043 36.2433 90.8853 36.2123 90.7521 36.2123C90.6189 36.2123 90.4988 36.2433 90.3918 36.3051C90.2871 36.3646 90.2038 36.4502 90.142 36.562C90.0825 36.6738 90.0528 36.8011 90.0528 36.9438C90.0528 37.0865 90.0825 37.2138 90.142 37.3256C90.2038 37.4374 90.2871 37.5242 90.3918 37.5861C90.4988 37.6455 90.6189 37.6753 90.7521 37.6753ZM93.7468 36.0054L92.9119 37.8822H92.6514L91.8201 36.0054H92.0841L92.787 37.6039L93.4971 36.0054H93.7468ZM95.6855 37.0223H94.1156C94.1298 37.2174 94.2048 37.3755 94.3404 37.4968C94.4759 37.6158 94.6472 37.6753 94.8542 37.6753C94.9707 37.6753 95.0778 37.655 95.1753 37.6146C95.2728 37.5718 95.3573 37.5099 95.4286 37.4291L95.5713 37.5932C95.4881 37.6931 95.3834 37.7692 95.2574 37.8215C95.1337 37.8739 94.9969 37.9 94.847 37.9C94.6543 37.9 94.4831 37.8596 94.3332 37.7787C94.1857 37.6955 94.0704 37.5813 93.9871 37.4362C93.9039 37.2911 93.8622 37.127 93.8622 36.9438C93.8622 36.7606 93.9015 36.5965 93.98 36.4514C94.0609 36.3063 94.1703 36.1933 94.3082 36.1124C94.4486 36.0316 94.6056 35.9911 94.7792 35.9911C94.9529 35.9911 95.1087 36.0316 95.2466 36.1124C95.3846 36.1933 95.4928 36.3063 95.5713 36.4514C95.6498 36.5941 95.6891 36.7583 95.6891 36.9438L95.6855 37.0223ZM94.7792 36.2088C94.5984 36.2088 94.4462 36.2671 94.3225 36.3836C94.2012 36.4978 94.1322 36.6476 94.1156 36.8332H95.4465C95.4298 36.6476 95.3596 36.4978 95.2359 36.3836C95.1146 36.2671 94.9624 36.2088 94.7792 36.2088ZM96.4474 36.3729C96.5068 36.2468 96.5948 36.1517 96.7114 36.0875C96.8303 36.0232 96.9766 35.9911 97.1503 35.9911V36.2373L97.0896 36.2338C96.8922 36.2338 96.7376 36.2944 96.6258 36.4157C96.514 36.537 96.4581 36.7071 96.4581 36.926V37.8822H96.2047V36.0054H96.4474V36.3729ZM99.2662 36.0054L98.4313 37.8822H98.1708L97.3394 36.0054H97.6035L98.3064 37.6039L99.0164 36.0054H99.2662ZM99.623 36.0054H99.8763V37.8822H99.623V36.0054ZM99.7514 35.5951C99.6991 35.5951 99.6551 35.5772 99.6194 35.5415C99.5837 35.5059 99.5659 35.463 99.5659 35.4131C99.5659 35.3655 99.5837 35.3239 99.6194 35.2882C99.6551 35.2525 99.6991 35.2347 99.7514 35.2347C99.8038 35.2347 99.8478 35.2525 99.8834 35.2882C99.9191 35.3215 99.937 35.362 99.937 35.4095C99.937 35.4619 99.9191 35.5059 99.8834 35.5415C99.8478 35.5772 99.8038 35.5951 99.7514 35.5951ZM102.215 37.0223H100.645C100.66 37.2174 100.735 37.3755 100.87 37.4968C101.006 37.6158 101.177 37.6753 101.384 37.6753C101.501 37.6753 101.608 37.655 101.705 37.6146C101.803 37.5718 101.887 37.5099 101.958 37.4291L102.101 37.5932C102.018 37.6931 101.913 37.7692 101.787 37.8215C101.664 37.8739 101.527 37.9 101.377 37.9C101.184 37.9 101.013 37.8596 100.863 37.7787C100.716 37.6955 100.6 37.5813 100.517 37.4362C100.434 37.2911 100.392 37.127 100.392 36.9438C100.392 36.7606 100.431 36.5965 100.51 36.4514C100.591 36.3063 100.7 36.1933 100.838 36.1124C100.978 36.0316 101.135 35.9911 101.309 35.9911C101.483 35.9911 101.639 36.0316 101.777 36.1124C101.914 36.1933 102.023 36.3063 102.101 36.4514C102.18 36.5941 102.219 36.7583 102.219 36.9438L102.215 37.0223ZM101.309 36.2088C101.128 36.2088 100.976 36.2671 100.852 36.3836C100.731 36.4978 100.662 36.6476 100.645 36.8332H101.976C101.96 36.6476 101.889 36.4978 101.766 36.3836C101.644 36.2671 101.492 36.2088 101.309 36.2088ZM105.454 36.0054L104.744 37.8822H104.505L103.913 36.3444L103.321 37.8822H103.082L102.375 36.0054H102.618L103.206 37.6003L103.809 36.0054H104.027L104.627 37.6003L105.222 36.0054H105.454Z" fill="#888888"/>
<path d="M75.0068 21.1122L74.1648 23.6099H73.8864L73.155 21.4797L72.42 23.6099H72.1452L71.3032 21.1122H71.5743L72.2951 23.2602L73.0408 21.1122H73.287L74.022 23.2709L74.7535 21.1122H75.0068ZM76.9287 22.75H75.3588C75.3731 22.945 75.448 23.1032 75.5836 23.2245C75.7192 23.3435 75.8904 23.4029 76.0974 23.4029C76.2139 23.4029 76.321 23.3827 76.4185 23.3423C76.516 23.2995 76.6005 23.2376 76.6718 23.1567L76.8146 23.3209C76.7313 23.4208 76.6266 23.4969 76.5006 23.5492C76.3769 23.6016 76.2401 23.6277 76.0902 23.6277C75.8976 23.6277 75.7263 23.5873 75.5764 23.5064C75.429 23.4231 75.3136 23.309 75.2303 23.1639C75.1471 23.0188 75.1054 22.8546 75.1054 22.6715C75.1054 22.4883 75.1447 22.3242 75.2232 22.1791C75.3041 22.034 75.4135 21.921 75.5515 21.8401C75.6918 21.7592 75.8488 21.7188 76.0224 21.7188C76.1961 21.7188 76.3519 21.7592 76.4899 21.8401C76.6278 21.921 76.7361 22.034 76.8146 22.1791C76.8931 22.3218 76.9323 22.4859 76.9323 22.6715L76.9287 22.75ZM76.0224 21.9365C75.8417 21.9365 75.6894 21.9947 75.5657 22.1113C75.4444 22.2255 75.3754 22.3753 75.3588 22.5609H76.6897C76.673 22.3753 76.6029 22.2255 76.4792 22.1113C76.3578 21.9947 76.2056 21.9365 76.0224 21.9365ZM77.4479 20.9624H77.7013V23.6099H77.4479V20.9624ZM79.184 23.6277C78.9985 23.6277 78.832 23.5873 78.6845 23.5064C78.5394 23.4255 78.4252 23.3125 78.3419 23.1674C78.2587 23.02 78.2171 22.8546 78.2171 22.6715C78.2171 22.4883 78.2587 22.3242 78.3419 22.1791C78.4252 22.034 78.5394 21.921 78.6845 21.8401C78.832 21.7592 78.9985 21.7188 79.184 21.7188C79.3458 21.7188 79.4897 21.7509 79.6157 21.8151C79.7442 21.877 79.8453 21.9686 79.919 22.0899L79.7299 22.2183C79.6681 22.1256 79.5896 22.0566 79.4944 22.0114C79.3993 21.9638 79.2958 21.94 79.184 21.94C79.0484 21.94 78.9259 21.9709 78.8165 22.0328C78.7095 22.0923 78.625 22.1779 78.5632 22.2897C78.5037 22.4015 78.474 22.5288 78.474 22.6715C78.474 22.8166 78.5037 22.945 78.5632 23.0568C78.625 23.1662 78.7095 23.2519 78.8165 23.3137C78.9259 23.3732 79.0484 23.4029 79.184 23.4029C79.2958 23.4029 79.3993 23.3803 79.4944 23.3351C79.5896 23.2899 79.6681 23.221 79.7299 23.1282L79.919 23.2566C79.8453 23.378 79.7442 23.4707 79.6157 23.5349C79.4873 23.5968 79.3434 23.6277 79.184 23.6277ZM81.1525 23.6277C80.9717 23.6277 80.8087 23.5873 80.6636 23.5064C80.5185 23.4231 80.4044 23.309 80.3211 23.1639C80.2379 23.0188 80.1962 22.8546 80.1962 22.6715C80.1962 22.4883 80.2379 22.3242 80.3211 22.1791C80.4044 22.034 80.5185 21.921 80.6636 21.8401C80.8087 21.7592 80.9717 21.7188 81.1525 21.7188C81.3333 21.7188 81.4962 21.7592 81.6413 21.8401C81.7864 21.921 81.8994 22.034 81.9803 22.1791C82.0635 22.3242 82.1051 22.4883 82.1051 22.6715C82.1051 22.8546 82.0635 23.0188 81.9803 23.1639C81.8994 23.309 81.7864 23.4231 81.6413 23.5064C81.4962 23.5873 81.3333 23.6277 81.1525 23.6277ZM81.1525 23.4029C81.2857 23.4029 81.4046 23.3732 81.5093 23.3137C81.6163 23.2519 81.6996 23.1651 81.759 23.0533C81.8185 22.9415 81.8482 22.8142 81.8482 22.6715C81.8482 22.5288 81.8185 22.4015 81.759 22.2897C81.6996 22.1779 81.6163 22.0923 81.5093 22.0328C81.4046 21.9709 81.2857 21.94 81.1525 21.94C81.0193 21.94 80.8991 21.9709 80.7921 22.0328C80.6874 22.0923 80.6042 22.1779 80.5423 22.2897C80.4829 22.4015 80.4531 22.5288 80.4531 22.6715C80.4531 22.8142 80.4829 22.9415 80.5423 23.0533C80.6042 23.1651 80.6874 23.2519 80.7921 23.3137C80.8991 23.3732 81.0193 23.4029 81.1525 23.4029ZM84.963 21.7188C85.1985 21.7188 85.3829 21.7866 85.5161 21.9222C85.6516 22.0578 85.7194 22.2576 85.7194 22.5216V23.6099H85.4661V22.5466C85.4661 22.3515 85.4185 22.2029 85.3234 22.1006C85.2306 21.9983 85.0986 21.9472 84.9273 21.9472C84.7323 21.9472 84.5788 22.0078 84.467 22.1291C84.3552 22.2481 84.2993 22.4134 84.2993 22.6251V23.6099H84.046V22.5466C84.046 22.3515 83.9984 22.2029 83.9033 22.1006C83.8105 21.9983 83.6773 21.9472 83.5037 21.9472C83.311 21.9472 83.1576 22.0078 83.0434 22.1291C82.9316 22.2481 82.8757 22.4134 82.8757 22.6251V23.6099H82.6224V21.7331H82.865V22.0756C82.9316 21.9614 83.0244 21.8734 83.1433 21.8116C83.2622 21.7497 83.399 21.7188 83.5536 21.7188C83.7106 21.7188 83.8462 21.7521 83.9604 21.8187C84.0769 21.8853 84.1638 21.984 84.2209 22.1149C84.2898 21.9912 84.3885 21.8948 84.517 21.8258C84.6478 21.7545 84.7965 21.7188 84.963 21.7188ZM88.0476 22.75H86.4777C86.4919 22.945 86.5669 23.1032 86.7024 23.2245C86.838 23.3435 87.0093 23.4029 87.2162 23.4029C87.3328 23.4029 87.4398 23.3827 87.5374 23.3423C87.6349 23.2995 87.7193 23.2376 87.7907 23.1567L87.9334 23.3209C87.8502 23.4208 87.7455 23.4969 87.6194 23.5492C87.4957 23.6016 87.359 23.6277 87.2091 23.6277C87.0164 23.6277 86.8452 23.5873 86.6953 23.5064C86.5478 23.4231 86.4325 23.309 86.3492 23.1639C86.266 23.0188 86.2243 22.8546 86.2243 22.6715C86.2243 22.4883 86.2636 22.3242 86.3421 22.1791C86.4229 22.034 86.5324 21.921 86.6703 21.8401C86.8107 21.7592 86.9677 21.7188 87.1413 21.7188C87.315 21.7188 87.4708 21.7592 87.6087 21.8401C87.7467 21.921 87.8549 22.034 87.9334 22.1791C88.0119 22.3218 88.0512 22.4859 88.0512 22.6715L88.0476 22.75ZM87.1413 21.9365C86.9605 21.9365 86.8083 21.9947 86.6846 22.1113C86.5633 22.2255 86.4943 22.3753 86.4777 22.5609H87.8086C87.7919 22.3753 87.7217 22.2255 87.598 22.1113C87.4767 21.9947 87.3245 21.9365 87.1413 21.9365ZM90.4676 21.7188C90.6436 21.7188 90.803 21.7592 90.9457 21.8401C91.0884 21.9186 91.2002 22.0304 91.2811 22.1755C91.362 22.3206 91.4024 22.4859 91.4024 22.6715C91.4024 22.857 91.362 23.0223 91.2811 23.1674C91.2002 23.3125 91.0884 23.4255 90.9457 23.5064C90.803 23.5873 90.6436 23.6277 90.4676 23.6277C90.3106 23.6277 90.1691 23.5944 90.043 23.5278C89.9193 23.4612 89.8194 23.3649 89.7433 23.2388V23.6099H89.5007V20.9624H89.754V22.0899C89.8325 21.9686 89.9324 21.877 90.0537 21.8151C90.1774 21.7509 90.3154 21.7188 90.4676 21.7188ZM90.4498 23.4029C90.5806 23.4029 90.6995 23.3732 90.8066 23.3137C90.9136 23.2519 90.9969 23.1651 91.0563 23.0533C91.1182 22.9415 91.1491 22.8142 91.1491 22.6715C91.1491 22.5288 91.1182 22.4015 91.0563 22.2897C90.9969 22.1779 90.9136 22.0923 90.8066 22.0328C90.6995 21.9709 90.5806 21.94 90.4498 21.94C90.3166 21.94 90.1964 21.9709 90.0894 22.0328C89.9847 22.0923 89.9015 22.1779 89.8396 22.2897C89.7802 22.4015 89.7504 22.5288 89.7504 22.6715C89.7504 22.8142 89.7802 22.9415 89.8396 23.0533C89.9015 23.1651 89.9847 23.2519 90.0894 23.3137C90.1964 23.3732 90.3166 23.4029 90.4498 23.4029ZM92.5649 21.7188C92.8099 21.7188 92.9979 21.7806 93.1287 21.9043C93.2595 22.0257 93.3249 22.2064 93.3249 22.4467V23.6099H93.0823V23.3173C93.0252 23.4148 92.9408 23.4909 92.829 23.5457C92.7196 23.6004 92.5887 23.6277 92.4365 23.6277C92.2272 23.6277 92.0606 23.5778 91.937 23.4779C91.8133 23.378 91.7514 23.2459 91.7514 23.0818C91.7514 22.9224 91.8085 22.794 91.9227 22.6965C92.0392 22.5989 92.2236 22.5502 92.4757 22.5502H93.0716V22.436C93.0716 22.2742 93.0264 22.1517 92.936 22.0685C92.8456 21.9828 92.7136 21.94 92.54 21.94C92.421 21.94 92.3068 21.9602 92.1974 22.0007C92.088 22.0387 91.994 22.0923 91.9155 22.1612L91.8014 21.9721C91.8965 21.8913 92.0107 21.8294 92.1439 21.7866C92.2771 21.7414 92.4175 21.7188 92.5649 21.7188ZM92.4757 23.4279C92.6185 23.4279 92.741 23.3958 92.8432 23.3316C92.9455 23.265 93.0216 23.1698 93.0716 23.0461V22.7393H92.4829C92.1617 22.7393 92.0012 22.8511 92.0012 23.0747C92.0012 23.1841 92.0428 23.2709 92.1261 23.3351C92.2093 23.397 92.3259 23.4279 92.4757 23.4279ZM94.7978 23.6277C94.6123 23.6277 94.4458 23.5873 94.2983 23.5064C94.1532 23.4255 94.039 23.3125 93.9558 23.1674C93.8725 23.02 93.8309 22.8546 93.8309 22.6715C93.8309 22.4883 93.8725 22.3242 93.9558 22.1791C94.039 22.034 94.1532 21.921 94.2983 21.8401C94.4458 21.7592 94.6123 21.7188 94.7978 21.7188C94.9596 21.7188 95.1035 21.7509 95.2296 21.8151C95.358 21.877 95.4591 21.9686 95.5328 22.0899L95.3437 22.2183C95.2819 22.1256 95.2034 22.0566 95.1082 22.0114C95.0131 21.9638 94.9096 21.94 94.7978 21.94C94.6622 21.94 94.5397 21.9709 94.4303 22.0328C94.3233 22.0923 94.2388 22.1779 94.177 22.2897C94.1175 22.4015 94.0878 22.5288 94.0878 22.6715C94.0878 22.8166 94.1175 22.945 94.177 23.0568C94.2388 23.1662 94.3233 23.2519 94.4303 23.3137C94.5397 23.3732 94.6622 23.4029 94.7978 23.4029C94.9096 23.4029 95.0131 23.3803 95.1082 23.3351C95.2034 23.2899 95.2819 23.221 95.3437 23.1282L95.5328 23.2566C95.4591 23.378 95.358 23.4707 95.2296 23.5349C95.1011 23.5968 94.9572 23.6277 94.7978 23.6277ZM96.6984 22.6679L96.256 23.0747V23.6099H96.0026V20.9624H96.256V22.7571L97.3763 21.7331H97.6903L96.8875 22.5002L97.7653 23.6099H97.4548L96.6984 22.6679ZM98.2054 23.6277C98.1531 23.6277 98.1079 23.6087 98.0698 23.5706C98.0341 23.5326 98.0163 23.4862 98.0163 23.4315C98.0163 23.3768 98.0341 23.3316 98.0698 23.2959C98.1079 23.2578 98.1531 23.2388 98.2054 23.2388C98.2577 23.2388 98.3029 23.2578 98.341 23.2959C98.379 23.3316 98.3981 23.3768 98.3981 23.4315C98.3981 23.4862 98.379 23.5326 98.341 23.5706C98.3029 23.6087 98.2577 23.6277 98.2054 23.6277ZM98.9615 23.6277C98.9092 23.6277 98.864 23.6087 98.8259 23.5706C98.7902 23.5326 98.7724 23.4862 98.7724 23.4315C98.7724 23.3768 98.7902 23.3316 98.8259 23.2959C98.864 23.2578 98.9092 23.2388 98.9615 23.2388C99.0138 23.2388 99.059 23.2578 99.0971 23.2959C99.1352 23.3316 99.1542 23.3768 99.1542 23.4315C99.1542 23.4862 99.1352 23.5326 99.0971 23.5706C99.059 23.6087 99.0138 23.6277 98.9615 23.6277ZM99.7176 23.6277C99.6653 23.6277 99.6201 23.6087 99.5821 23.5706C99.5464 23.5326 99.5285 23.4862 99.5285 23.4315C99.5285 23.3768 99.5464 23.3316 99.5821 23.2959C99.6201 23.2578 99.6653 23.2388 99.7176 23.2388C99.77 23.2388 99.8152 23.2578 99.8532 23.2959C99.8913 23.3316 99.9103 23.3768 99.9103 23.4315C99.9103 23.4862 99.8913 23.5326 99.8532 23.5706C99.8152 23.6087 99.77 23.6277 99.7176 23.6277Z" fill="#888888"/>
<circle cx="189.364" cy="26.854" r="0.892019" fill="#007AFF"/>
<circle cx="189.364" cy="29.976" r="0.892019" fill="#007AFF"/>
<circle cx="189.364" cy="33.0981" r="0.892019" fill="#007AFF"/>
<g filter="url(#filter3_ddddd_7_15199)">
<circle cx="54.4457" cy="29.7529" r="12.2653" fill="#D9D9D9"/>
<circle cx="54.4457" cy="29.7529" r="11.1502" stroke="white" stroke-width="2.23005"/>
</g>
<circle cx="62.474" cy="21.7246" r="4.46009" fill="#00CDB4" stroke="white" stroke-width="2.23005"/>
<defs>
<filter id="filter0_ddddd_7_15199" x="0.253517" y="0.539905" width="235.493" height="189.072" filterUnits="userSpaceOnUse" color-interpolation-filters="sRGB">
<feFlood flood-opacity="0" result="BackgroundImageFix"/>
<feColorMatrix in="SourceAlpha" type="matrix" values="0 0 0 0 0 0 0 0 0 0 0 0 0 0 0 0 0 0 127 0" result="hardAlpha"/>
<feOffset/>
<feColorMatrix type="matrix" values="0 0 0 0 0.85098 0 0 0 0 0.866667 0 0 0 0 0.956863 0 0 0 0.1 0"/>
<feBlend mode="normal" in2="BackgroundImageFix" result="effect1_dropShadow_7_15199"/>
<feColorMatrix in="SourceAlpha" type="matrix" values="0 0 0 0 0 0 0 0 0 0 0 0 0 0 0 0 0 0 127 0" result="hardAlpha"/>
<feOffset dy="3.56808"/>
<feGaussianBlur stdDeviation="4.01409"/>
<feColorMatrix type="matrix" values="0 0 0 0 0.85098 0 0 0 0 0.866667 0 0 0 0 0.956863 0 0 0 0.1 0"/>
<feBlend mode="normal" in2="effect1_dropShadow_7_15199" result="effect2_dropShadow_7_15199"/>
<feColorMatrix in="SourceAlpha" type="matrix" values="0 0 0 0 0 0 0 0 0 0 0 0 0 0 0 0 0 0 127 0" result="hardAlpha"/>
<feOffset dy="14.2723"/>
<feGaussianBlur stdDeviation="7.13615"/>
<feColorMatrix type="matrix" values="0 0 0 0 0.85098 0 0 0 0 0.866667 0 0 0 0 0.956863 0 0 0 0.09 0"/>
<feBlend mode="normal" in2="effect2_dropShadow_7_15199" result="effect3_dropShadow_7_15199"/>
<feColorMatrix in="SourceAlpha" type="matrix" values="0 0 0 0 0 0 0 0 0 0 0 0 0 0 0 0 0 0 127 0" result="hardAlpha"/>
<feOffset dy="32.1127"/>
<feGaussianBlur stdDeviation="9.5892"/>
<feColorMatrix type="matrix" values="0 0 0 0 0.85098 0 0 0 0 0.866667 0 0 0 0 0.956863 0 0 0 0.05 0"/>
<feBlend mode="normal" in2="effect3_dropShadow_7_15199" result="effect4_dropShadow_7_15199"/>
<feColorMatrix in="SourceAlpha" type="matrix" values="0 0 0 0 0 0 0 0 0 0 0 0 0 0 0 0 0 0 127 0" result="hardAlpha"/>
<feOffset dy="57.0892"/>
<feGaussianBlur stdDeviation="11.3732"/>
<feColorMatrix type="matrix" values="0 0 0 0 0.85098 0 0 0 0 0.866667 0 0 0 0 0.956863 0 0 0 0.01 0"/>
<feBlend mode="normal" in2="effect4_dropShadow_7_15199" result="effect5_dropShadow_7_15199"/>
<feBlend mode="normal" in="SourceGraphic" in2="effect5_dropShadow_7_15199" result="shape"/>
</filter>
<filter id="filter1_ddddd_7_15199" x="9.1729" y="6.33806" width="217.751" height="169.53" filterUnits="userSpaceOnUse" color-interpolation-filters="sRGB">
<feFlood flood-opacity="0" result="BackgroundImageFix"/>
<feColorMatrix in="SourceAlpha" type="matrix" values="0 0 0 0 0 0 0 0 0 0 0 0 0 0 0 0 0 0 127 0" result="hardAlpha"/>
<feOffset/>
<feColorMatrix type="matrix" values="0 0 0 0 0.533333 0 0 0 0 0.603922 0 0 0 0 0.803922 0 0 0 0.1 0"/>
<feBlend mode="normal" in2="BackgroundImageFix" result="effect1_dropShadow_7_15199"/>
<feColorMatrix in="SourceAlpha" type="matrix" values="0 0 0 0 0 0 0 0 0 0 0 0 0 0 0 0 0 0 127 0" result="hardAlpha"/>
<feOffset dy="3.12207"/>
<feGaussianBlur stdDeviation="3.56808"/>
<feColorMatrix type="matrix" values="0 0 0 0 0.533333 0 0 0 0 0.603922 0 0 0 0 0.803922 0 0 0 0.1 0"/>
<feBlend mode="normal" in2="effect1_dropShadow_7_15199" result="effect2_dropShadow_7_15199"/>
<feColorMatrix in="SourceAlpha" type="matrix" values="0 0 0 0 0 0 0 0 0 0 0 0 0 0 0 0 0 0 127 0" result="hardAlpha"/>
<feOffset dy="12.9343"/>
<feGaussianBlur stdDeviation="6.46714"/>
<feColorMatrix type="matrix" values="0 0 0 0 0.533333 0 0 0 0 0.603922 0 0 0 0 0.803922 0 0 0 0.09 0"/>
<feBlend mode="normal" in2="effect2_dropShadow_7_15199" result="effect3_dropShadow_7_15199"/>
<feColorMatrix in="SourceAlpha" type="matrix" values="0 0 0 0 0 0 0 0 0 0 0 0 0 0 0 0 0 0 127 0" result="hardAlpha"/>
<feOffset dy="28.9906"/>
<feGaussianBlur stdDeviation="8.69718"/>
<feColorMatrix type="matrix" values="0 0 0 0 0.533333 0 0 0 0 0.603922 0 0 0 0 0.803922 0 0 0 0.05 0"/>
<feBlend mode="normal" in2="effect3_dropShadow_7_15199" result="effect4_dropShadow_7_15199"/>
<feColorMatrix in="SourceAlpha" type="matrix" values="0 0 0 0 0 0 0 0 0 0 0 0 0 0 0 0 0 0 127 0" result="hardAlpha"/>
<feOffset dy="51.2911"/>
<feGaussianBlur stdDeviation="10.2582"/>
<feColorMatrix type="matrix" values="0 0 0 0 0.533333 0 0 0 0 0.603922 0 0 0 0 0.803922 0 0 0 0.01 0"/>
<feBlend mode="normal" in2="effect4_dropShadow_7_15199" result="effect5_dropShadow_7_15199"/>
<feBlend mode="normal" in="SourceGraphic" in2="effect5_dropShadow_7_15199" result="shape"/>
</filter>
<filter id="filter2_ddddd_7_15199" x="142.084" y="59.8588" width="58.8733" height="63.7794" filterUnits="userSpaceOnUse" color-interpolation-filters="sRGB">
<feFlood flood-opacity="0" result="BackgroundImageFix"/>
<feColorMatrix in="SourceAlpha" type="matrix" values="0 0 0 0 0 0 0 0 0 0 0 0 0 0 0 0 0 0 127 0" result="hardAlpha"/>
<feOffset/>
<feColorMatrix type="matrix" values="0 0 0 0 0.533333 0 0 0 0 0.603922 0 0 0 0 0.803922 0 0 0 0.1 0"/>
<feBlend mode="normal" in2="BackgroundImageFix" result="effect1_dropShadow_7_15199"/>
<feColorMatrix in="SourceAlpha" type="matrix" values="0 0 0 0 0 0 0 0 0 0 0 0 0 0 0 0 0 0 127 0" result="hardAlpha"/>
<feOffset dy="1.33803"/>
<feGaussianBlur stdDeviation="1.33803"/>
<feColorMatrix type="matrix" values="0 0 0 0 0.533333 0 0 0 0 0.603922 0 0 0 0 0.803922 0 0 0 0.1 0"/>
<feBlend mode="normal" in2="effect1_dropShadow_7_15199" result="effect2_dropShadow_7_15199"/>
<feColorMatrix in="SourceAlpha" type="matrix" values="0 0 0 0 0 0 0 0 0 0 0 0 0 0 0 0 0 0 127 0" result="hardAlpha"/>
<feOffset dy="4.9061"/>
<feGaussianBlur stdDeviation="2.45305"/>
<feColorMatrix type="matrix" values="0 0 0 0 0.533333 0 0 0 0 0.603922 0 0 0 0 0.803922 0 0 0 0.09 0"/>
<feBlend mode="normal" in2="effect2_dropShadow_7_15199" result="effect3_dropShadow_7_15199"/>
<feColorMatrix in="SourceAlpha" type="matrix" values="0 0 0 0 0 0 0 0 0 0 0 0 0 0 0 0 0 0 127 0" result="hardAlpha"/>
<feOffset dy="10.7042"/>
<feGaussianBlur stdDeviation="3.34507"/>
<feColorMatrix type="matrix" values="0 0 0 0 0.533333 0 0 0 0 0.603922 0 0 0 0 0.803922 0 0 0 0.05 0"/>
<feBlend mode="normal" in2="effect3_dropShadow_7_15199" result="effect4_dropShadow_7_15199"/>
<feColorMatrix in="SourceAlpha" type="matrix" values="0 0 0 0 0 0 0 0 0 0 0 0 0 0 0 0 0 0 127 0" result="hardAlpha"/>
<feOffset dy="19.1784"/>
<feGaussianBlur stdDeviation="3.79108"/>
<feColorMatrix type="matrix" values="0 0 0 0 0.533333 0 0 0 0 0.603922 0 0 0 0 0.803922 0 0 0 0.01 0"/>
<feBlend mode="normal" in2="effect4_dropShadow_7_15199" result="effect5_dropShadow_7_15199"/>
<feBlend mode="normal" in="SourceGraphic" in2="effect5_dropShadow_7_15199" result="shape"/>
</filter>
<filter id="filter3_ddddd_7_15199" x="38.6123" y="16.5957" width="31.6667" height="37.9108" filterUnits="userSpaceOnUse" color-interpolation-filters="sRGB">
<feFlood flood-opacity="0" result="BackgroundImageFix"/>
<feColorMatrix in="SourceAlpha" type="matrix" values="0 0 0 0 0 0 0 0 0 0 0 0 0 0 0 0 0 0 127 0" result="hardAlpha"/>
<feOffset/>
<feColorMatrix type="matrix" values="0 0 0 0 0.533333 0 0 0 0 0.603922 0 0 0 0 0.803922 0 0 0 0.1 0"/>
<feBlend mode="normal" in2="BackgroundImageFix" result="effect1_dropShadow_7_15199"/>
<feColorMatrix in="SourceAlpha" type="matrix" values="0 0 0 0 0 0 0 0 0 0 0 0 0 0 0 0 0 0 127 0" result="hardAlpha"/>
<feOffset dy="0.446009"/>
<feGaussianBlur stdDeviation="0.669014"/>
<feColorMatrix type="matrix" values="0 0 0 0 0.533333 0 0 0 0 0.603922 0 0 0 0 0.803922 0 0 0 0.1 0"/>
<feBlend mode="normal" in2="effect1_dropShadow_7_15199" result="effect2_dropShadow_7_15199"/>
<feColorMatrix in="SourceAlpha" type="matrix" values="0 0 0 0 0 0 0 0 0 0 0 0 0 0 0 0 0 0 127 0" result="hardAlpha"/>
<feOffset dy="2.23005"/>
<feGaussianBlur stdDeviation="1.11502"/>
<feColorMatrix type="matrix" values="0 0 0 0 0.533333 0 0 0 0 0.603922 0 0 0 0 0.803922 0 0 0 0.09 0"/>
<feBlend mode="normal" in2="effect2_dropShadow_7_15199" result="effect3_dropShadow_7_15199"/>
<feColorMatrix in="SourceAlpha" type="matrix" values="0 0 0 0 0 0 0 0 0 0 0 0 0 0 0 0 0 0 127 0" result="hardAlpha"/>
<feOffset dy="4.9061"/>
<feGaussianBlur stdDeviation="1.56103"/>
<feColorMatrix type="matrix" values="0 0 0 0 0.533333 0 0 0 0 0.603922 0 0 0 0 0.803922 0 0 0 0.05 0"/>
<feBlend mode="normal" in2="effect3_dropShadow_7_15199" result="effect4_dropShadow_7_15199"/>
<feColorMatrix in="SourceAlpha" type="matrix" values="0 0 0 0 0 0 0 0 0 0 0 0 0 0 0 0 0 0 127 0" result="hardAlpha"/>
<feOffset dy="8.92019"/>
<feGaussianBlur stdDeviation="1.78404"/>
<feColorMatrix type="matrix" values="0 0 0 0 0.533333 0 0 0 0 0.603922 0 0 0 0 0.803922 0 0 0 0.01 0"/>
<feBlend mode="normal" in2="effect4_dropShadow_7_15199" result="effect5_dropShadow_7_15199"/>
<feBlend mode="normal" in="SourceGraphic" in2="effect5_dropShadow_7_15199" result="shape"/>
</filter>
</defs>
</svg>
